<svg xmlns="http://www.w3.org/2000/svg" viewBox="0 0 600 136"><path fill="#404041" d="M59.98 0h11.07c8.57.78 17.25 3.44 23.83 9.17 3.38 2.76 5.73 6.5 7.88 10.24 4.63-3.7 9.36-7.41 14.85-9.78 9.96-4.42 21.36-5.18 31.98-2.98 6.98 1.47 13.91 4.84 18.07 10.83 4.37 6.1 4.5 15.07 0 21.13-4.16 5.08-10.98 6.17-16.85 8.22 3.39-1.7 6.97-3.79 8.42-7.52 2.51-5.05 1.74-11.28-1.66-15.72-5.48-7.79-15.57-10.32-24.61-10.54-7.43.15-15.4 1.66-21.11 6.77-4.18 3.46-7.1 8.59-7.13 14.1-.46 10.16 6.52 20.06 16.24 23.06 5.56 2.25 11.79-.37 17.21 2.41-5.68 1.43-11.56 2.34-16.92 4.84-9.5 4.16-17.7 12.08-20.67 22.2-2.75 9.29-2.93 20.07 2.39 28.51 4.24 6.77 10.71 12.92 18.93 13.99 9.04 1.18 19.03.18 26.45-5.56 7.63-5.88 12.72-14.59 15.54-23.7 2.06-6.87 1.75-15.44-3.95-20.51-5.85-5.27-14.19-5.54-21.64-5.41 6.84-3.34 14.95-4.87 22.31-2.32 7.54 2.73 12.32 10.67 12.34 18.54.37 21.14-15.92 41.87-37.03 45.27-1.86.34-3.73.59-5.61.76h-10.08c-7.47-.63-15-2.7-21.14-7.13-7.41-5.4-12.79-13.71-14.07-22.85-1.44-8.53.41-17.57 5.22-24.78 5.77-9.08 15.12-15.27 25.04-19.04-6.18-1.47-12.09-4.11-16.87-8.35-5.83 8.79-15.13 14.56-25.14 17.46 6.19-3.1 12.11-7.36 15.26-13.71 4.34-8.35 5.43-18.19 3.95-27.41C90.7 19.42 82.29 10.27 71.85 7.24c-22.23-6.45-47.69 5-58.41 25.33-4.32 8.41-5.89 18.46-3.45 27.67C12.1 67.66 18.81 74.77 27.07 74c4.71.05 8.52-3.04 11.36-6.49-3.22 5.18-5.9 11.44-11.71 14.22-6.71 2.85-15.16 1.02-20.06-4.41C2.55 73.08.63 67.24 0 61.47v-8.54C1.24 38.49 9.5 25.58 20.3 16.3 31.17 6.51 45.46.99 59.98 0m170.39 38.76c4.98.23 6.86 5.69 10.07 8.69-.78.57-1.55 1.15-2.32 1.72-2.1-1.85-4.23-3.66-6.37-5.46-2.13 1.81-4.27 3.63-6.4 5.45-.75-.54-1.49-1.08-2.24-1.62 2.4-2.95 4.83-5.86 7.26-8.78m-37.98 3.84c.19-1.02.38-2.04.58-3.06 5.63.02 11.28-.25 16.9.14 4.12.29 8.81 1.73 10.82 5.67 2.21 4.48 1.21 10.49-2.64 13.77-4.38 4.04-10.63 4.61-16.3 4.74-.04 3.94-.1 7.89.33 11.82.89.12 2.65.36 3.53.49-.06.7-.2 2.12-.27 2.83h-13.38c.04-.54.13-1.61.18-2.14 1.28-.84 3.41-1.09 3.73-2.9.69-3.61.32-7.31.39-10.96-.12-6.64.32-13.31-.41-19.94-1.16-.16-2.31-.31-3.46-.46m9.77.58c-.7 5.6-.37 11.26-.37 16.89 3.37.13 7.08.7 10.12-1.18 4.5-2.56 5.34-9.21 2.54-13.3-3.05-3.45-8.16-3.08-12.29-2.41m166.21-.89c.14-.91.28-1.83.43-2.74 8.7-.03 17.41-.19 26.11.09.22 2.92.43 5.84.6 8.76-3.36.74-3.31-2.67-4.3-4.82-4.31-.51-8.74-.74-13.05-.2-.85 4.23-.28 8.58-.4 12.87 3.04-.04 6.12.24 9.15-.19 1.42-1.13 2.73-2.4 4.22-3.46.19 3.78.16 7.57-.1 11.34l-2.48.4q-.45-2.055-1.05-4.05c-3.16-.95-6.51-.46-9.75-.55.15 5.09-.41 10.22.34 15.27 4.19.97 8.63.56 12.89.24 3.45-.21 2.42-6.18 6.46-5.35-.4 3.08-.93 6.14-1.54 9.18-9.38-.11-18.76-.07-28.14-.08.07-.63.21-1.89.29-2.52.79-.2 2.39-.62 3.19-.82 1.39-5.44.55-11.1.76-16.64-.2-5.2.47-10.46-.38-15.6-1.08-.42-2.16-.79-3.25-1.13m160.52-.44c1.7-2.72 5.29-1.53 7.49-.16-.18 2.17.24 5.23-2.38 6.07-3.5 1.66-7.41-2.73-5.11-5.91m-251.56 5.37c1.85-1 3.99-1.24 6.01-1.76-.15 2.44-.3 4.88-.42 7.32 3.04-.02 6.08-.08 9.11-.18-.81 1.15-.66 3.53-2.4 3.75-2.27.29-4.57.16-6.85.18.29 5.68-1.2 11.6.64 17.1 2 3.19 5.96 1.27 8.74.42.12.87.38 2.61.51 3.48-2.98 1.57-6.33 3.07-9.76 2.2-2.85-.34-5.54-2.57-5.74-5.55-.43-5.87-.05-11.76-.17-17.64-1.44-.05-2.88-.11-4.31-.17.14-.9.44-2.69.58-3.59 1.2-.01 2.4-.02 3.61-.02.09-1.85.08-3.72.45-5.54m181.51-.09c1.87-.81 3.89-1.19 5.87-1.69-.1 2.45-.2 4.9-.29 7.35 3.02-.03 6.05-.09 9.08-.18-.49 1.24-1.03 2.46-1.62 3.64-2.51.39-5.06.25-7.58.27-.19 5.12-.71 10.28.02 15.38.23 1.86 1.72 3.59 3.71 3.57 1.92-.23 3.78-.85 5.65-1.35.12.84.37 2.51.49 3.34-2.82 1.55-5.96 3.01-9.26 2.38-3.16-.24-6.22-2.7-6.31-6.02-.3-5.76 0-11.54-.1-17.31-1.42-.01-2.83-.03-4.24-.06.13-1.24.27-2.48.43-3.72 1.22.01 2.45.02 3.69.04.09-1.89.09-3.79.46-5.64m-208.02 8.33c2.74-1.86 5.77-3.82 9.25-3.49 3.29-.13 6.81 1.97 7.32 5.41.85 6.03-.01 12.16.57 18.22.91.15 2.74.44 3.65.59-.06.7-.2 2.1-.27 2.8-4.38.01-8.75.02-13.12 0 .02-.53.05-1.59.07-2.12 1.54-.88 3.77-1.6 3.66-3.8.34-4.93 1.05-10.34-1.07-14.96-2.7-3.22-7.23-.87-10.13.87.08 5.02-.17 10.05.06 15.08-.25 2.03 2.31 1.72 3.52 2.38-.07.63-.22 1.89-.3 2.52-4.27.06-8.54.05-12.81.03.02-.53.05-1.59.07-2.12 1.49-.9 3.82-1.58 3.62-3.78.15-5.01.27-10.06-.07-15.07-.13-2.02-2.64-1.51-3.97-2.12l.36-2.51c2.98-.46 5.98-.81 8.99-1zm50.62-2.14c5.53-2.81 14.09-1.63 16.39 4.87.6 2.22 1.85 6.21-.89 7.38-5.52.83-11.14.44-16.69.99.81 3.53 2.2 7.74 6.13 8.79 3.99 1.37 7.92-.68 11.18-2.83.24 1.15.43 2.31.59 3.49-5.98 5.77-17.67 5.38-22.01-2.23-3.34-6.78-1.71-16.63 5.3-20.46m1.75 3.87c-1.49 1.62-2.01 3.83-2.76 5.84 4.3-.26 8.6-.48 12.89-.82-.62-1.8-.84-3.85-2.11-5.35-2.15-2.06-6.04-1.9-8.02.33m23.01-2.01c3.68-3.17 9-3.78 13.62-2.85 3.01.64 5.23 3.5 5.08 6.59-.05 5.55-.45 11.12.19 16.66.96.06 2.88.19 3.83.26-.16.72-.5 2.16-.67 2.88-3.08.58-6.65 1.88-8.9-1.11-3.82 2.35-8.86 3.33-12.96 1.11-4.38-2.27-4.43-9.15-.52-11.9 3.94-2.82 8.97-3.16 13.57-4.13-.27-2.97-.33-7.44-4.33-7.58-3.76-.97-5.3 2.86-5.77 5.81-1.7-.43-3.41-.82-5.03-1.44-.68-1.72.75-3.2 1.89-4.3m4.59 13.58c-1.77 1.45-2.2 4.36-.56 6.07 1.8 1.87 4.78 1.3 6.87.26 3.34-1.79 1.4-6.32 1.91-9.36-2.8.76-5.95 1.07-8.22 3.03m77.43-15.63c5.26-2.14 12.06-1.76 15.9 2.87a74 74 0 0 1-4.08 3.86c-1.49-2.04-3.18-4.49-6.04-4.39-3.63-.52-6.56 2.65-7.33 5.93-1.31 4.96-.16 11.4 4.79 13.91 4.09 1.57 8.21-.6 11.5-2.91.42.76 1.27 2.29 1.7 3.05-5.69 5.73-16.67 6.37-21.97-.2-4.83-6.99-2.65-18.63 5.53-22.12m19.7 6.07c1.94-5.8 8.63-7.73 14.15-7.2 3.36.06 6.93 2.36 7.05 5.99.37 5.79-.79 11.65.42 17.39 1.17.26 2.35.48 3.55.64-.1.67-.31 1.99-.42 2.65-2.19.42-4.39.79-6.59 1.13-.58-.56-1.74-1.66-2.32-2.22-3.93 2.39-9.14 3.46-13.29.99-4.38-2.41-4.07-9.53.06-12.04 3.91-2.5 8.67-2.93 13.12-3.82-.33-2.24.06-4.97-1.75-6.66-1.92-1.27-4.89-1.52-6.6.22-.95 1.39-1.2 3.1-1.73 4.65-1.9-.53-3.79-1.1-5.65-1.72m5.56 12.76c-.18 5.21 7.23 5.03 9.53 1.63.53-2.6.46-5.28.56-7.92-3.7.98-9.56 1.47-10.09 6.29m49.08-18.45c4.7-2.47 11.49-2.34 15.1 1.98 2.05 2.29 2.63 5.58 2.27 8.56-.46 1.74-2.46 1.69-3.88 1.85-4.78.29-9.57.29-14.33.65.79 3.5 2.13 7.62 5.99 8.74 4.07 1.53 8.08-.71 11.44-2.83.01 1.39 1.17 3.25-.28 4.3-6.29 4.87-17.45 4.45-21.38-3.24-3.14-6.62-1.56-16.09 5.07-20.01m2.35 3.42c-1.7 1.58-2.23 3.95-3.01 6.04 4.23-.16 8.46-.4 12.69-.76-.59-1.88-.51-4.26-2.25-5.53-2.08-1.75-5.48-1.65-7.43.25m32.47-4.51c2.26-.99 4.75-.08 7.04.37-.58 1.88-1.21 3.74-1.95 5.57-2.59-.9-6.99-2.89-8.28.82-1.62 5.21-.99 10.89-.68 16.26 1.5.38 3.03.55 4.57.78-.11.69-.33 2.07-.45 2.76-4.66.03-9.31.03-13.97.01.07-.56.2-1.69.27-2.25 1.24-.82 3.41-1.15 3.44-3.02.57-5.56.68-11.26-.22-16.79-1.23-.43-2.47-.81-3.72-1.12l.44-2.49c3.07-.43 6.15-.78 9.26-.76.02.84.05 2.52.07 3.36 1.32-1.25 2.55-2.65 4.18-3.5m33.86 3.22c2.61-1.77 5.39-3.8 8.71-3.69 3.4-.32 7.24 1.6 7.94 5.18.95 6.16-.23 12.46.78 18.64l3.66.32c-.12.73-.37 2.18-.49 2.91-4.38 0-8.75.01-13.12-.01l.28-2.26c1.62-.81 3.69-1.62 3.55-3.8.18-4.79.95-9.98-.95-14.52-2.55-3.66-7.39-1.2-10.35.61.01 5.47-.05 10.94.07 16.41 1.21.31 2.43.61 3.66.92-.13.66-.38 1.98-.5 2.64-4.29.01-8.57.02-12.84 0 .08-.57.26-1.72.35-2.29 1.29-.74 3.36-1.12 3.4-2.99.54-5.55.76-11.28-.24-16.78q-1.86-.66-3.75-1.14c.12-.61.37-1.84.49-2.45 3.05-.43 6.12-.81 9.22-.78.03.77.1 2.31.13 3.08m23.51 3.48c2.92-6.55 11.25-8.53 17.6-6.39 2.18.76 3.68 2.88 3.76 5.19.43 5.94-.15 11.91.42 17.86l3.47-.04v2.65c-2.25.63-4.54 1.05-6.83 1.47l-2.26-2.22c-3.93 2.01-8.75 3.4-12.91 1.23-4.68-2.16-4.77-9.7-.47-12.29 3.95-2.53 8.76-2.98 13.25-3.94-.35-2.03-.34-4.2-1.3-6.06-1.65-1.84-4.69-1.92-6.74-.73-1.14 1.49-1.62 3.36-2.33 5.06-1.9-.57-3.79-1.16-5.66-1.79m6.29 10.95c-1.48 2.34.2 5.73 2.95 5.91 2.17.17 4.52-.54 6.06-2.13.83-2.62.35-5.45.45-8.15-3.29.88-7.48 1.18-9.46 4.37M224.76 56.18c1.17-4.49 6.91-2.84 10.38-3.49-.03 7.56-.28 15.12-.09 22.67 1.33.3 2.65.58 3.99.86-.13.7-.4 2.09-.53 2.78-4.42 0-8.85 0-13.28-.01l.04-2.14c1.28-.87 3.62-1.06 3.86-2.89.72-5.65.45-11.39-.02-17.05-1.45-.24-2.9-.49-4.35-.73m301.55-2.55c3.04-.24 6.3-1.54 9.26-.43.43 7.45-.58 14.93.2 22.38.98.16 2.94.47 3.92.63l-.6 2.79h-13.36c.06-.58.17-1.74.22-2.32 1.38-.74 3.66-.93 3.79-2.91.44-5.68.61-11.48-.32-17.12l-3.91-.33c.2-.67.6-2.01.8-2.69"/><g fill="#cfa556"><path d="M56.7 32.7c2.79-7.89 10.12-12.62 15.4-18.7-6.29 8.27-6.13 19.16-6.09 29.05.77 13.74 4.68 27.16 4.51 40.98.31 12.79-2.81 26.23-11.31 36.12-5.98 7.25-14.86 12.11-24.3 12.67-8.16.62-17.76-.79-23.11-7.66-4.71-7.32-.6-17.16 6.11-21.73-2.71 5.28-5.19 11.61-2.71 17.46 2.49 5.63 9.39 6.68 14.83 7.27 7.05.9 14.58-1.37 19.3-6.84 8.08-8.69 9.22-21.33 8.88-32.64-3.68-.72-7.78-.67-11-2.79-2.69-2.07-.96-5.5-.39-8.13.84-2.16-1.71-3.33-2.8-4.73.25-1.31.81-2.49 1.7-3.49-2.71-1.82-1.42-4.97 1.18-6.17-.95-2.86-5.15-3.54-5.4-6.43 4.6-4.44 11.58-6.92 13.86-13.43.84-3.53-.11-7.36 1.34-10.81m82.08 47.01c1.05 3.01 2.19 6 3.83 8.74 2.4 4.26 5.59 8.52 5.01 13.72-4.44-.76-8.12-3.41-10.95-6.8.72 5.04 4.53 8.82 9.35 10.15-1.83 1.32-3.64 2.97-5.99 3.16-4.66.76-9.6-2.85-10.02-7.61-.48-4.14 2.15-7.64 4.04-11.06 1.99-3.23 3.54-6.7 4.73-10.3M393.25 92h2.25c0 8.83-.01 17.65 0 26.48l-2.24.04c-.02-8.84 0-17.68-.01-26.52m-119.07 5.29c.69-1.34.99-3.29 2.8-3.5 2.34 5.27 4.03 10.82 6.27 16.13.47 1.56 2.12 2.16 3.24 3.17-2.56.95-5.32.66-7.98.55.66-.76 1.35-1.5 2.04-2.23-.51-1.39-1.01-2.78-1.51-4.16h-6.82c-.56 1.47-1.11 2.94-1.66 4.41l2.65 1.26c-1.68.58-5.52 1.95-6.29.08 3.19-4.83 4.94-10.42 7.26-15.71m1.62 1.16c-.93 2.37-1.87 4.73-2.84 7.09 1.81-.03 3.62-.05 5.44-.07-.85-2.34-1.72-4.68-2.6-7.02m33.61-3.89c4.76-1.67 10.9.68 12.32 5.76 2.45 6.31-2.73 14.17-9.64 13.72-4.73.53-9.23-3.28-9.75-7.94-.88-4.92 2.25-10.16 7.07-11.54m.81 1.69c-6.66 2.19-6.5 13.03-.14 15.51 3.65 1.6 8.12-.93 8.81-4.81 1.93-5.28-2.6-12.64-8.67-10.7m13.33-.97c2.4-1.3 5.23-.66 7.83-.71-.83.85-1.78 1.61-2.53 2.54-.27 4.87-.05 9.76-.07 14.64 2.06 0 4.12 0 6.18-.01 1.02-1.21 2.04-2.42 3.17-3.54-.18 1.85-.42 3.69-.68 5.53-4.79-.05-9.6.29-14.36-.32.66-.53 1.99-1.58 2.65-2.11-.09-4.83.23-9.68-.13-14.5-.51-.38-1.55-1.14-2.06-1.52m22.78-.78c6.62-2.49 14.09 3.72 12.58 10.69-.46 8.08-11.79 11.98-17.23 6.17-5.26-5.09-2.44-15.12 4.65-16.86m.04 1.96c-6.59 2.86-5.45 14.28 1.65 15.66 5.61 1.21 9.31-5.45 7.65-10.25-.66-4.11-5.33-7.2-9.3-5.41m19.21-.88c3.67-2.41 8.23-1.49 12.16-.28.1 1.83.19 3.66.24 5.49-2.07-2.41-4.29-5.48-7.95-4.82-7.54.69-8.06 12.69-1.65 15.44 2.18 1.05 4.61.36 6.89.12-.02-1.81-.06-3.62-.11-5.43l-3.16-1.28c2.64-1.34 5.66-.73 8.49-.71-.78.73-1.56 1.45-2.35 2.17-.11 2.05-.16 4.1-.21 6.16-4.06 1.92-9.3 2.55-13.15-.16-5.41-3.92-4.98-13.31.8-16.7m48.67-.35c3.52-1.98 7.66-1.04 11.25.23.05 1.87.11 3.74.09 5.61-1.97-2.4-3.89-5.89-7.61-5.07-7.4.79-7.91 12.66-1.55 15.37 3.24 1.71 6.62-.4 9.49-1.86.17.63.34 1.26.51 1.9-3.86 2.79-9.59 3.91-13.59.79-5.58-4.04-4.83-13.96 1.41-16.97m21.15-.67c6.55-2.61 14.19 3.38 12.81 10.39-.26 8.03-11.24 12.12-16.92 6.77-5.56-4.9-3.03-15.26 4.11-17.16m.82 1.69c-7.02 2.32-6.34 14.02.72 15.78 4.7 1.37 8.87-3.42 8.34-7.92.23-4.69-4.21-9.47-9.06-7.86m14.24 2.73c.39-5.81 7.78-5.45 11.79-3.8-.03 1.75-.08 3.49-.18 5.24-1.14-1.41-2-3.05-3.33-4.28-2.01-1.15-4.13.19-5.94 1.03.18 4.51 5.17 4.86 8.1 6.96 3.31 1.94 2.76 7.55-.64 9.11-3.35 1.66-7.25.6-10.37-1.08.09-1.91.21-3.83.45-5.73 1.64 2.12 2.31 5.52 5.51 5.79 2.87.88 5.57-2.39 4.02-4.99-2.44-3.51-9.57-2.85-9.41-8.25m37.09-3.19c.95-.87 2.06-1.5 3.41-1.29 3.41-.06 6.83.01 10.25.01 0 1.61-.02 3.22-.04 4.83-.86-1.02-1.77-1.98-2.71-2.9-1.87-.41-3.81-.1-5.69-.06-.03 2.09-.03 4.18-.01 6.27 2.35.02 4.71-.27 6.55-1.87-.06 2.14-.11 4.29-.24 6.44-.69-.9-1.37-1.81-2.04-2.71-1.44-.01-2.87-.01-4.3-.01.25 2.37-.57 5.11.56 7.26 2.14.19 4.31-.02 6.46-.08.45-.79 1.35-2.36 1.8-3.15.58 1.7.31 3.45.1 5.18-4.78.04-9.56.14-14.34-.1q1.245-1.26 2.55-2.46c.23-4.84.18-9.7.04-14.54-.58-.21-1.76-.62-2.35-.82m15.77-1.28c5.37-.02 10.74-.01 16.11 0 .1 1.71.18 3.42.22 5.13-1.18-.84-1.89-2.08-2.58-3.3-1.45-.05-2.89-.09-4.32-.13.15 5.08-.34 10.2.23 15.26l2.52 1.72c-2.77.78-5.67.6-8.5.41.93-.83 1.89-1.62 2.88-2.4.19-5.03.14-10.06.07-15.09-3.15-.61-5.25 1.19-7.01 3.51.09-1.71.24-3.41.38-5.11m24.12.08c6.45-2.65 14.2 3.19 12.9 10.19-.14 7.88-10.48 12.09-16.44 7.37-6.04-4.61-3.83-15.61 3.54-17.56m.01 2.04c-6.09 3.02-5.05 13.78 1.63 15.4 4.68 1.33 8.91-3.51 8.27-8.02.39-5.02-5.05-9.92-9.9-7.38m14.21-1.95c2.61-.19 5.23-.2 7.85-.11-.87.9-1.85 1.7-2.66 2.65-.26 4.83-.11 9.68.01 14.52 2 0 4.01.12 6-.12 1.26-.97 2.26-2.23 3.45-3.3-.22 1.81-.47 3.61-.76 5.4-4.65.04-9.3.05-13.95-.01.71-1.23 2.17-2.14 2.32-3.62.23-4.34.03-8.68.05-13.01-.78-.8-1.56-1.59-2.31-2.4m22.75-.16c3.84-1.26 8.48-.1 10.91 3.23 3.26 4.57 2.05 11.94-2.9 14.82-4.09 2.39-10.15 2.1-13.21-1.83-4.27-5.29-1.59-14.58 5.2-16.22m-.04 2.02c-6.34 2.96-5.28 14.09 1.68 15.54 4.72 1.13 8.79-3.82 7.99-8.31.31-4.87-4.94-9.51-9.67-7.23m19.94-1.32c3.62-1.99 7.9-1.04 11.63.11.07 1.83.14 3.67.18 5.51-2.08-2.52-4.44-5.72-8.22-4.83-6.48.87-7.53 10.31-3.14 14.19 2.25 2.35 5.69 1.83 8.58 1.31.35-2.96-.29-5.71-2.81-7.49 2.66-.02 5.31-.03 7.98-.01-.73.78-1.46 1.54-2.21 2.29-.05 2.02-.06 4.04-.07 6.07-4.11 1.91-9.4 2.73-13.27-.12-5.69-4-4.82-13.94 1.35-17.03m-392.88-.57c4.58-.08 9.46-.84 13.76 1.15 6.07 3.09 5.58 13.13-.26 16.23-4.22 2.34-9.23 1.64-13.86 1.68 1.4-1.62 2.86-3.34 2.44-5.66-.47-4.47 1.47-9.82-2.08-13.4m5.08 1.91c-.56 5.05-.21 10.16-.16 15.22 2.13-.12 4.45.19 6.38-.92 4.12-2.29 4.9-8.36 2.39-12.09-2.07-2.35-5.68-2.94-8.61-2.21"/><path d="M210.78 95.09c4.36-1.2 8.96-.36 13.43-.58l.16 4.9c-1.38-1.05-2.19-3.42-4.26-3.14-1.4-.03-2.79-.01-4.18.05-.13 2.1-.19 4.2-.24 6.3 2.45.04 4.91-.17 6.86-1.86-.08 1.79-.17 3.59-.29 5.38-.24.13-.73.39-.98.52-.44-2.92-3.46-2.02-5.58-2.27.03 2.5.09 5 .28 7.49 2.18-.05 4.36-.13 6.54-.22.9-1.06 1.82-2.1 2.77-3.11-.16 1.73-.34 3.45-.56 5.17-4.76.01-9.53.15-14.28-.14.81-.89 1.67-1.74 2.53-2.58-.1-4.76.29-9.54-.16-14.27zm15.72-.48c4.31.23 9.61-1.39 13.11 1.83 2.74 3.18-.02 7.03-2.9 8.84 1.96 2.95 3.89 6.11 7.2 7.7.42-.56 1.24-1.68 1.66-2.24.24-4.59.6-9.22.3-13.82-.53-.48-1.57-1.43-2.09-1.91 1.51-.27 3.02-.51 4.55-.73 2.15 4.42 4.13 8.93 6.16 13.42 2.33-4.23 4.31-8.65 6.72-12.83 1.52-.37 3.08-.52 4.69-.45-.59.71-1.75 2.14-2.33 2.85-.15 3.9.21 7.81.32 11.71-.18 1.49.45 2.83 1.89 3.4-.11 2.7-4.62.74-6.43 1.48 3.1-4.13 1.08-9.58 1.63-14.31-2.15 3.82-3.8 7.92-6.22 11.58-.36.02-1.09.07-1.45.1-2.12-3.69-3.61-7.69-5.53-11.47.12 3.84-.38 7.69-.15 11.52.72.48 2.17 1.43 2.89 1.9-2.28.67-4.67.61-7.01.45-1.56 0-3.59 1.12-4.71-.48-1.97-2.26-3.31-4.97-4.92-7.48-.9.04-1.79.07-2.68.11-.13 2.9-.29 5.98 2.33 7.86-2.52.1-5.04.11-7.56.1 1.42-1.62 2.94-3.34 2.54-5.67-.37-4.51 1.29-9.71-2.01-13.46m4.85 1.59c-.12 2.63-.11 5.27 0 7.9 2.77 0 6.45-.63 6.46-4.17.01-3.5-3.77-4-6.46-3.73m53.64-1.62c5.44-.15 10.89-.06 16.33-.08.07 1.75.09 3.49.04 5.23-.86-1.08-1.68-2.18-2.46-3.32q-2.085-.135-4.14-.24c.11 5.09-.29 10.21.17 15.29.63.42 1.91 1.26 2.55 1.68-2.42.69-4.95.64-7.44.65-.2-.17-.6-.5-.8-.67.84-.68 1.64-1.4 2.39-2.18.31-4.9.04-9.81.11-14.72-1.38.02-2.76.05-4.14.08-.82 1.14-1.65 2.28-2.54 3.37-.05-1.7-.07-3.4-.07-5.09m179.39.15c1.63-.13 3.27-.23 4.91-.3 2.05 4.44 4.08 8.9 6.09 13.36 2.13-4.46 4.53-8.79 6.72-13.22 1.55-.03 3.1-.05 4.66-.05l-2.41 2.65c.15 4.74.05 9.56.72 14.25.59.46 1.77 1.36 2.37 1.81-2.51.65-5.12.56-7.68.39.74-.84 1.5-1.66 2.28-2.47-.07-3.81-.31-7.62-.37-11.43-2.02 3.83-3.74 7.83-6.08 11.48-.38 0-1.14-.01-1.52-.01-1.97-3.63-3.5-7.49-5.28-11.22-.31 3.93-.32 7.86-.31 11.79.66.16 1.99.49 2.65.65-.26.36-.79 1.08-1.05 1.44-2.12-.09-4.23-.2-6.32-.51.67-.48 2-1.43 2.66-1.9.27-4.81.32-9.63.49-14.44-.64-.57-1.9-1.7-2.53-2.27"/></g></svg>