<?xml version="1.0" encoding="UTF-8"?>
<svg id="Layer_1" xmlns="http://www.w3.org/2000/svg" xmlns:xlink="http://www.w3.org/1999/xlink" version="1.1" viewBox="0 0 400 300">
  <!-- Generator: Adobe Illustrator 29.1.0, SVG Export Plug-In . SVG Version: 2.1.0 Build 142)  -->
  <defs>
    <style>
      .st0 {
        fill: url(#linear-gradient1);
      }

      .st1 {
        fill: url(#linear-gradient);
      }

      .st2 {
        fill: #cda356;
      }
    </style>
    <linearGradient id="linear-gradient" x1="184.7" y1="111.23" x2="238.52" y2="111.23" gradientUnits="userSpaceOnUse">
      <stop offset="0" stop-color="#18151a"/>
      <stop offset=".07" stop-color="#121014"/>
      <stop offset=".15" stop-color="#040304"/>
      <stop offset=".17" stop-color="#010101"/>
      <stop offset=".61" stop-color="#221e25"/>
      <stop offset=".93" stop-color="#3d3642"/>
    </linearGradient>
    <linearGradient id="linear-gradient1" x1="52.58" y1="202.22" x2="347.6" y2="202.22" xlink:href="#linear-gradient"/>
  </defs>
  <g>
    <path class="st2" d="M194.83,162.6c-1.9-.14-3.8-.37-5.66-.75-13.91-2.99-25.75-14.13-27.52-29.13,19.82,27.76,65.68,12.17,63.6-22.68,1.94,2.43,3.39,5.01,4.4,7.67.1.28.21.57.32.89,0,0,0,0,0,0,6.91,20.36-11.49,44.93-33.96,44.07-.39-.01-.78-.04-1.17-.07,0,0,0,0,0,0ZM202.97,65.8c1.68-2.57,3.89-4.59,6.39-6-.11.22-.21.43-.31.65.15-.17.3-.33.45-.5l.59-1.03c-.73.37-2.35,1.19-3.07,1.57-.36.19-.72.39-1.08.59-.36.2-.71.4-1.07.6-1.42.82-2.82,1.67-4.2,2.55-2.75,1.79-5.4,3.71-7.96,5.77-.64.51-1.27,1.03-1.9,1.56-.63.53-1.24,1.07-1.85,1.62-1.22,1.1-2.41,2.23-3.57,3.39-2.32,2.32-4.51,4.78-6.54,7.36-2.01,2.6-3.86,5.33-5.48,8.2-.81,1.43-1.56,2.9-2.25,4.4-.17.38-.34.75-.5,1.13-.16.38-.33.76-.48,1.14-.15.39-.3.77-.44,1.16-.14.39-.28.77-.41,1.17-1.07,3.12-1.82,6.35-2.19,9.63-.18,1.64-.26,3.29-.24,4.94.01.41.02.82.03,1.23.02.41.04.82.07,1.23l.11,1.23.15,1.22.15,1.21c.43-1.68,1.34-4.57,1.78-6.12.45-1.55.94-3.05,1.47-4.51.53-1.46,1.1-2.87,1.71-4.25.15-.35.32-.69.47-1.03.15-.34.32-.68.48-1.02.16-.34.33-.67.49-1.01l.51-1c1.38-2.64,2.88-5.18,4.52-7.66,1.63-2.47,3.38-4.88,5.22-7.26,1.84-2.37,3.78-4.7,5.79-7,2.01-2.31,4.1-4.59,6.23-6.88l1.62-1.72,1.63-1.72,2.28-2.38c.07-.15.13-.29.2-.44.34-.7.73-1.39,1.17-2.06Z"/>
    <path class="st1" d="M229.32,97.53c-1.38-1.68-2.93-3.27-4.63-4.77-2.83-2.49-5.76-4.82-8.59-7.16,0,0,0,0,0,0-.36-.3-.72-.6-1.08-.9,0,0,0,0-.01-.01-7.02-6.27-9.15-16.44-5.26-25,.12-.25.23-.51.36-.76-2.91,1.64-5.47,3.98-7.43,6.97-.51.78-.96,1.57-1.36,2.39-.08.17-.16.34-.24.51-1.85,4.06-2.34,8.49-1.6,12.69,3.57,1.53,7.7,3.77,10.42,7.59,1.88,2.64.72,2.83,4.16,5,3.44,2.17,11.25,1.42,11.97,2.38.63,1.07-1.01,2.81-1.17,3.79-.21,1.27.14,2.21.62,2.31.23.06.63-.1,1.19-.08.84.02,1.58,1.34,1.34,1.94-.24.6.11.45-1.14,1.7,1.2-.55,1.94-.4,2.38,0,.44.39.9,1.31.47,2.06-.43.75-.6,2.06.3,3.01.9.95,3.83,2.13,2.44,5.34-.45,1.04-1.64,1.62-2.5,2.1,6.91,20.36-11.5,44.94-33.96,44.07-.39-.01-.78-.04-1.17-.07,0,0,0,0,0,0-1.91-.1-3.8-.35-5.66-.75-1.52-.31-3.01-.72-4.47-1.25,10.37,4.3,20.8,3.61,29.77-.31,25.01-10.94,31.48-42.61,14.85-62.76Z"/>
  </g>
  <g>
    <path class="st2" d="M50.04,243.87c0-.06.01-.16.04-.29.03-.14.07-.25.11-.33.43-.03.72-.15.89-.36.17-.21.25-.56.25-1.03v-7.89c0-.38-.02-.66-.07-.82-.05-.17-.15-.27-.3-.31s-.4-.06-.74-.06c0-.15.01-.29.04-.42.02-.13.04-.23.05-.28.02-.1.06-.15.1-.16.05-.02.08-.02.09-.02h4.02c2.23,0,3.95.48,5.15,1.45s1.8,2.41,1.8,4.32c0,1.28-.3,2.41-.9,3.38-.6.97-1.48,1.72-2.63,2.25-1.15.52-2.56.77-4.23.74h-3.5c-.11,0-.17-.05-.17-.16ZM53.02,241.86c0,.28.02.5.06.68.04.17.15.3.34.37.18.07.5.11.95.11,1.07,0,2.02-.2,2.82-.59.81-.39,1.44-.99,1.88-1.79.45-.8.67-1.8.67-3s-.21-2.11-.64-2.81c-.43-.69-1.02-1.19-1.78-1.49-.76-.3-1.64-.45-2.64-.45h-.71c-.34,0-.58.08-.73.24-.15.17-.22.44-.22.83v7.89ZM70.83,244.04l-8.06-.02c-.11,0-.17-.06-.17-.17,0-.05.01-.14.04-.28.03-.14.07-.25.11-.33.43-.04.72-.16.89-.37.17-.21.25-.54.25-1.02v-7.89c0-.39-.02-.67-.07-.83-.05-.16-.15-.26-.3-.3s-.4-.06-.74-.06c0-.15.01-.29.04-.42.02-.13.04-.23.05-.28.03-.12.1-.18.19-.18h7.54c.13,0,.21.03.26.08.05.05.07.14.09.27l.14,2.15c-.07.04-.17.06-.31.09s-.24.04-.29.04c-.15,0-.24-.07-.26-.19l-.14-.73c-.05-.28-.12-.46-.21-.54-.09-.08-.28-.12-.56-.12l-2.7-.04c-.34-.01-.58.01-.72.06-.14.06-.23.16-.27.31-.04.16-.05.4-.05.72v3.08h2.3c.47,0,.78-.06.93-.17s.22-.34.23-.68c.08-.05.19-.08.32-.1.13-.02.22-.03.27-.03.12,0,.17.06.17.17l-.07,2.9c0,.09-.06.15-.17.19-.06.02-.15.03-.28.06-.13.02-.25.03-.38.03,0-.4-.02-.7-.06-.9-.04-.2-.13-.33-.28-.39-.15-.07-.37-.1-.69-.1h-2.3v3.77c0,.52.07.85.21,1,.14.14.35.21.64.2l3-.07c.33-.02.59-.07.77-.16.18-.1.31-.27.39-.52l.28-.8c.06-.13.14-.19.26-.19.06,0,.15.02.28.05.13.04.22.07.29.11l-.38,2.16c-.06.28-.22.41-.48.41ZM72.65,244.02c-.11,0-.17-.06-.17-.17,0-.05.01-.14.04-.28.03-.14.07-.25.11-.33.43-.03.72-.15.89-.36.17-.21.25-.56.25-1.03v-7.89c0-.39-.02-.67-.07-.83-.05-.16-.15-.26-.3-.3s-.4-.06-.74-.06c0-.15.01-.29.04-.42.02-.13.04-.23.05-.28.03-.12.1-.18.19-.18h4.19c1.37,0,2.44.27,3.21.81.76.53,1.14,1.3,1.14,2.3,0,.83-.25,1.53-.75,2.11-.5.58-1.15,1.02-1.95,1.33.66,1,1.2,1.82,1.63,2.44.43.63.79,1.1,1.09,1.43s.58.55.82.67c.25.12.52.17.8.17.03.14.02.3-.03.48-.04.18-.09.31-.15.39-.41.16-.82.24-1.25.24-.37,0-.69-.09-.95-.28-.27-.18-.59-.56-.97-1.11l-2.55-4.05c-.41.06-.84.09-1.26.09-.17,0-.35,0-.52-.02v2.96c0,.51.02.84.07.99.05.15.16.23.33.26.09.01.22.02.37.03.15,0,.29.01.41.01,0,.31-.02.55-.07.71-.04.12-.1.17-.19.17h-3.73ZM75.46,237.8c.43.08.84.12,1.23.12,1.06,0,1.84-.23,2.33-.69.49-.46.74-1.15.74-2.06,0-.77-.24-1.36-.73-1.78-.49-.41-1.18-.62-2.08-.62-.41,0-.75.03-1.04.09-.19.05-.31.16-.37.34-.06.19-.09.44-.09.76v3.83ZM83.57,243.85s.01-.14.04-.28c.03-.14.07-.25.11-.33.43-.03.72-.15.88-.36s.25-.56.26-1.03l.24-7.83c.01-.37-.02-.64-.08-.81s-.18-.28-.36-.33c-.18-.06-.44-.09-.77-.12,0-.15.01-.29.04-.42.02-.13.04-.23.05-.28.03-.12.1-.18.19-.18h1.78c.38,0,.63.14.75.4l3.71,8.14s.04.04.06.04c.02,0,.03-.01.04-.04l4.1-8.04c.17-.34.45-.5.81-.5h1.89c.12,0,.17.06.17.18,0,.05-.02.14-.05.28-.03.14-.07.25-.11.33-.43.01-.74.07-.95.18s-.3.4-.29.87l.31,8.13c.02.48.06.81.11.97.05.16.17.25.34.28.12.01.25.02.41.03.15,0,.29.01.41.01,0,.31-.02.55-.07.71-.04.12-.1.17-.19.17h-3.59c-.11,0-.17-.06-.17-.17,0-.05.01-.14.04-.28.03-.14.07-.25.11-.33.43-.03.69-.15.8-.36.11-.21.16-.56.15-1.03l-.16-6.88s-.01-.07-.03-.07c-.03,0-.05.02-.07.05l-3.74,7.21c-.09.17-.23.26-.4.26h-.45c-.17,0-.31-.09-.4-.26l-3.26-7.02s-.04-.07-.09-.05c-.05.01-.07.05-.07.1l-.21,6.66c-.01.52.03.85.11.99.09.15.21.23.37.25.09.01.24.02.46.03s.38.01.49.01c0,.31-.02.55-.07.71-.03.12-.1.17-.19.17h-3.35c-.11,0-.17-.06-.17-.17ZM98.21,244.02c-.11,0-.17-.06-.17-.17,0-.05.01-.14.04-.28.03-.14.07-.25.11-.33.36-.06.65-.18.88-.36.23-.18.44-.51.65-1.01l4.12-9.77c.06-.14.13-.25.21-.34.08-.09.18-.13.31-.13h.57l3.74,9.82c.18.46.35.83.51,1.1s.35.43.58.49c.09.02.2.04.33.05.13.01.26.03.42.04.01.12,0,.25-.03.4-.03.15-.06.25-.08.31-.03.12-.1.17-.19.17h-3.81c-.12,0-.17-.06-.17-.17,0-.05.02-.14.04-.28.03-.14.07-.25.11-.33.3-.02.51-.05.64-.11.13-.06.19-.18.19-.36,0-.12-.03-.26-.08-.44-.05-.18-.12-.39-.22-.65l-.64-1.77h-4.52l-.8,1.98c-.08.2-.14.36-.19.5-.05.14-.07.26-.07.35,0,.19.13.31.38.36.09.01.21.02.35.03s.28.01.42.01c0,.31-.03.55-.07.71-.04.12-.1.17-.19.17h-3.38ZM102.18,238.88h3.73l-1.68-4.56c-.01-.06-.04-.09-.09-.09s-.08.03-.1.09l-1.85,4.56ZM113.13,244.02c-.12,0-.17-.06-.17-.17,0-.05.02-.14.05-.28.03-.14.07-.25.11-.33.51-.03.86-.15,1.04-.36.19-.21.28-.56.28-1.03v-8.93h-2.62c-.28.02-.46.06-.54.14-.09.08-.16.26-.22.53l-.19.85c-.03.13-.12.19-.26.19-.06,0-.15-.01-.29-.04-.14-.02-.24-.05-.31-.09l.17-2.29c.01-.13.04-.22.09-.27.05-.06.13-.08.26-.08h9.53c.13,0,.21.03.26.08.05.05.08.14.09.27l.17,2.29c-.07.04-.17.07-.31.09-.14.03-.24.04-.3.04-.14,0-.22-.06-.26-.19l-.19-.85c-.06-.28-.13-.45-.22-.53-.09-.08-.27-.13-.55-.14h-2.63v8.93c0,.51.03.84.07.99.05.15.16.23.33.26.12.01.27.02.46.03.19,0,.35.01.46.01,0,.31-.02.55-.07.71-.04.12-.1.17-.19.17h-4.04ZM127.14,244.29c-.84,0-1.62-.15-2.35-.44-.72-.29-1.35-.71-1.9-1.26-.54-.54-.97-1.19-1.27-1.92-.31-.74-.46-1.55-.46-2.43,0-.96.17-1.84.51-2.64.34-.8.81-1.5,1.42-2.09.61-.6,1.31-1.05,2.12-1.38.81-.32,1.68-.48,2.6-.48s1.68.15,2.42.46c.73.3,1.36.73,1.9,1.27.53.54.94,1.18,1.24,1.92.3.73.44,1.53.44,2.4,0,.95-.16,1.83-.49,2.63-.33.81-.79,1.51-1.39,2.1-.6.59-1.3,1.04-2.11,1.38-.81.33-1.71.49-2.68.49ZM127.59,243.23c.89,0,1.67-.21,2.34-.64.67-.43,1.19-1.02,1.56-1.79.37-.76.56-1.64.56-2.63,0-1.07-.19-2.02-.58-2.84-.39-.82-.93-1.46-1.64-1.93-.71-.46-1.53-.7-2.48-.7-.83,0-1.58.22-2.25.65s-1.19,1.03-1.58,1.79c-.39.76-.59,1.63-.59,2.62,0,1.08.2,2.04.62,2.86.41.82.97,1.46,1.67,1.92.7.46,1.5.69,2.37.69ZM143.12,244.04l-8-.02c-.11,0-.17-.06-.17-.17,0-.05.01-.14.04-.28.03-.14.07-.25.11-.33.43-.04.72-.16.89-.37.17-.21.25-.54.25-1.02v-7.89c0-.39-.02-.67-.07-.83-.05-.16-.15-.26-.3-.3s-.4-.06-.74-.06c0-.15.01-.29.04-.42.02-.13.04-.23.05-.28.03-.12.1-.18.19-.18h3.78c.12,0,.17.06.17.18,0,.05-.02.14-.04.28-.03.14-.07.25-.11.33-.51.01-.85.11-1.02.3s-.26.52-.26.99v7.89c0,.52.07.84.21.97s.35.19.64.17l2.93-.07c.34-.02.59-.09.75-.23.17-.14.3-.33.41-.59l.35-.86c.06-.13.14-.19.26-.19.06,0,.15.02.28.04.13.03.22.06.29.1l-.43,2.43c-.06.28-.22.41-.49.41ZM150.71,244.29c-.84,0-1.62-.15-2.35-.44-.72-.29-1.35-.71-1.9-1.26-.54-.54-.97-1.19-1.27-1.92-.31-.74-.46-1.55-.46-2.43,0-.96.17-1.84.51-2.64.34-.8.81-1.5,1.42-2.09.61-.6,1.31-1.05,2.12-1.38.81-.32,1.68-.48,2.6-.48s1.68.15,2.42.46c.73.3,1.36.73,1.9,1.27.53.54.94,1.18,1.24,1.92.3.73.44,1.53.44,2.4,0,.95-.16,1.83-.49,2.63-.33.81-.79,1.51-1.39,2.1-.6.59-1.3,1.04-2.11,1.38-.81.33-1.71.49-2.68.49ZM151.16,243.23c.89,0,1.67-.21,2.34-.64.67-.43,1.19-1.02,1.56-1.79.37-.76.56-1.64.56-2.63,0-1.07-.19-2.02-.58-2.84-.39-.82-.93-1.46-1.64-1.93-.71-.46-1.53-.7-2.48-.7-.83,0-1.58.22-2.25.65s-1.19,1.03-1.58,1.79c-.39.76-.59,1.63-.59,2.62,0,1.08.2,2.04.62,2.86.41.82.97,1.46,1.67,1.92.7.46,1.5.69,2.37.69ZM165.07,244.3c-.82,0-1.6-.14-2.35-.41-.75-.28-1.41-.69-1.99-1.23-.58-.53-1.04-1.19-1.38-1.95s-.5-1.63-.5-2.6.16-1.8.47-2.59c.31-.79.76-1.48,1.34-2.06.59-.59,1.27-1.03,2.05-1.35s1.64-.47,2.57-.47c.59,0,1.18.05,1.77.15.59.1,1.13.27,1.63.53h.5c.14,0,.21.06.22.19l.21,2.78c-.09.04-.2.06-.32.08-.12.02-.21.03-.27.03-.12,0-.2-.06-.24-.19l-.3-.8c-.1-.29-.28-.54-.52-.76-.24-.21-.53-.39-.87-.52-.32-.16-.68-.28-1.07-.35-.39-.07-.76-.11-1.12-.11-.85,0-1.61.21-2.27.64-.66.42-1.17,1.01-1.53,1.78-.36.77-.54,1.68-.53,2.71.01,1.11.23,2.06.66,2.85.43.79.99,1.4,1.69,1.82.7.42,1.46.64,2.3.64.44,0,.9-.04,1.38-.1.48-.07.93-.18,1.34-.36v-2.6c0-.4-.05-.69-.15-.85s-.26-.26-.48-.29c-.23-.04-.53-.06-.91-.06,0-.15.01-.29.04-.42s.04-.23.05-.29c.04-.11.1-.17.19-.17h3.95c.12,0,.17.06.17.17,0,.05-.02.14-.06.28-.04.14-.09.25-.13.33-.43.01-.7.11-.81.3s-.17.52-.17.99v2.96c-.68.5-1.43.84-2.23,1.02s-1.58.28-2.33.28ZM172.02,244.02c-.12,0-.17-.06-.17-.17,0-.05.02-.14.04-.28.03-.14.07-.25.11-.33.51-.03.86-.15,1.04-.36s.28-.56.28-1.03v-7.89c0-.37-.03-.64-.08-.8s-.17-.26-.36-.31c-.18-.05-.47-.08-.85-.09,0-.15.01-.29.03-.42.02-.13.04-.23.05-.28.04-.12.1-.18.19-.18h3.95c.12,0,.17.06.17.18,0,.05-.02.14-.04.28-.03.14-.07.25-.11.33-.46.04-.79.14-.99.32-.2.18-.3.5-.3.98v7.89c0,.51.02.84.07.99.05.15.16.23.33.26.12.01.27.02.46.03s.34.01.46.01c0,.31-.02.55-.07.71-.03.12-.1.17-.19.17h-4.04ZM185.62,244.04l-8.06-.02c-.11,0-.17-.06-.17-.17,0-.05.01-.14.04-.28.03-.14.07-.25.11-.33.43-.04.72-.16.89-.37.17-.21.25-.54.25-1.02v-7.89c0-.39-.02-.67-.07-.83-.05-.16-.15-.26-.3-.3s-.4-.06-.74-.06c0-.15.01-.29.04-.42.02-.13.04-.23.05-.28.03-.12.1-.18.19-.18h7.54c.13,0,.21.03.26.08.05.05.07.14.09.27l.14,2.15c-.07.04-.17.06-.31.09s-.24.04-.29.04c-.15,0-.24-.07-.26-.19l-.14-.73c-.05-.28-.12-.46-.21-.54-.09-.08-.28-.12-.56-.12l-2.7-.04c-.34-.01-.58.01-.72.06-.14.06-.23.16-.27.31-.04.16-.05.4-.05.72v3.08h2.3c.47,0,.78-.06.93-.17s.22-.34.23-.68c.08-.05.19-.08.32-.1.13-.02.22-.03.27-.03.12,0,.17.06.17.17l-.07,2.9c0,.09-.06.15-.17.19-.06.02-.15.03-.28.06-.13.02-.25.03-.38.03,0-.4-.02-.7-.06-.9-.04-.2-.13-.33-.28-.39-.15-.07-.37-.1-.69-.1h-2.3v3.77c0,.52.07.85.21,1,.14.14.35.21.64.2l3-.07c.33-.02.59-.07.77-.16.18-.1.31-.27.39-.52l.28-.8c.06-.13.14-.19.26-.19.06,0,.15.02.28.05.13.04.22.07.29.11l-.38,2.16c-.06.28-.22.41-.48.41ZM204.61,244.54c-.3.01-.68-.12-1.13-.39-.46-.27-.95-.65-1.48-1.12-.54.46-1.17.82-1.88,1.06-.71.24-1.48.36-2.3.36-.95,0-1.77-.16-2.47-.48-.7-.32-1.24-.78-1.62-1.36-.38-.58-.57-1.27-.57-2.05,0-.92.27-1.76.8-2.49.54-.74,1.25-1.27,2.14-1.59-.35-.46-.62-.9-.83-1.31-.21-.41-.31-.84-.31-1.29,0-.5.14-.93.42-1.3s.68-.66,1.18-.87c.5-.22,1.08-.32,1.74-.32.62,0,1.17.11,1.64.31.47.21.83.49,1.1.87.26.37.4.79.4,1.26,0,.37-.1.73-.29,1.07-.19.34-.44.62-.74.82s-.63.31-.98.31c-.08-.02-.17-.07-.28-.16-.1-.1-.18-.2-.22-.31.23-.07.43-.22.61-.44.17-.22.26-.51.26-.87,0-.57-.17-1.04-.51-1.44-.34-.39-.79-.59-1.36-.59-.41,0-.75.13-1.01.38-.26.25-.39.58-.39.98,0,.3.09.68.26,1.13.17.45.52,1,1.04,1.66.65.83,1.33,1.68,2.06,2.52.73.85,1.47,1.62,2.22,2.31.4-.76.61-1.63.61-2.61,0-.21-.01-.43-.04-.66-.2-.01-.38-.02-.54-.02-.51,0-.95.09-1.32.26l-.12-.53c-.01-.09,0-.18.03-.25.03-.08.08-.12.16-.15.35-.14.69-.23,1.04-.27s.68-.06,1-.06c.22,0,.43,0,.63,0,.2.01.41.01.62.01.39,0,.78-.03,1.15-.09.38-.06.73-.19,1.05-.38.21.3.31.6.3.89-.1.31-.29.53-.56.66-.27.13-.59.19-.96.19-.14,0-.28,0-.41-.02-.14-.01-.29-.02-.43-.04-.05.75-.18,1.45-.41,2.1-.22.65-.52,1.23-.89,1.75.58.45,1.14.81,1.69,1.07.55.26,1.06.38,1.53.36,0,.18,0,.33-.02.45-.01.12-.04.24-.09.36-.09.08-.3.15-.62.21-.33.06-.62.1-.89.11ZM201.19,242.32c-.75-.73-1.53-1.55-2.33-2.48-.8-.92-1.55-1.82-2.23-2.7-.54.31-.97.75-1.28,1.32-.31.58-.47,1.21-.47,1.9,0,.56.11,1.06.33,1.52s.58.82,1.06,1.09c.49.27,1.13.41,1.91.41.61,0,1.17-.09,1.68-.28.51-.19.95-.44,1.32-.78ZM219.44,244.29c-.8,0-1.56-.14-2.29-.43-.73-.28-1.38-.69-1.95-1.23-.57-.54-1.02-1.19-1.36-1.95s-.5-1.61-.5-2.56.16-1.8.47-2.59c.31-.79.76-1.48,1.34-2.06.59-.59,1.27-1.03,2.05-1.35s1.64-.47,2.57-.47c.59,0,1.14.06,1.64.19.5.13,1,.32,1.5.58h.5c.14,0,.21.06.22.19l.21,2.86c-.09.04-.2.06-.32.08-.12.02-.21.03-.27.03-.12,0-.2-.07-.24-.19l-.3-.88c-.13-.39-.36-.73-.71-1-.35-.27-.75-.47-1.21-.61-.46-.14-.92-.21-1.4-.21-.85,0-1.61.21-2.27.63s-1.17,1.01-1.53,1.78-.54,1.68-.53,2.73c.01,1.11.23,2.06.66,2.85.43.79.99,1.4,1.69,1.82.7.42,1.46.64,2.3.64.65,0,1.32-.13,2.01-.37s1.34-.65,1.94-1.19l.59.85c-.74.68-1.53,1.17-2.36,1.46-.83.29-1.65.44-2.46.44ZM231.62,244.29c-.84,0-1.62-.15-2.35-.44-.72-.29-1.35-.71-1.9-1.26-.54-.54-.97-1.19-1.27-1.92-.31-.74-.46-1.55-.46-2.43,0-.96.17-1.84.51-2.64.34-.8.81-1.5,1.42-2.09.61-.6,1.31-1.05,2.12-1.38.81-.32,1.68-.48,2.6-.48s1.68.15,2.42.46c.73.3,1.36.73,1.9,1.27.53.54.94,1.18,1.24,1.92.3.73.44,1.53.44,2.4,0,.95-.16,1.83-.49,2.63-.33.81-.79,1.51-1.39,2.1-.6.59-1.3,1.04-2.11,1.38-.81.33-1.71.49-2.68.49ZM232.07,243.23c.89,0,1.67-.21,2.34-.64.67-.43,1.19-1.02,1.56-1.79.37-.76.56-1.64.56-2.63,0-1.07-.19-2.02-.58-2.84-.39-.82-.93-1.46-1.64-1.93-.71-.46-1.53-.7-2.48-.7-.83,0-1.58.22-2.25.65s-1.19,1.03-1.58,1.79c-.39.76-.59,1.63-.59,2.62,0,1.08.2,2.04.62,2.86.41.82.97,1.46,1.67,1.92.7.46,1.5.69,2.37.69ZM243.56,244.29c-.53,0-1.06-.07-1.59-.21-.53-.14-1-.31-1.42-.52-.42-.21-.72-.42-.9-.64l-.14-2.77c.09-.03.21-.05.36-.06.15-.02.26-.03.33-.03.1,0,.18.02.22.07.04.05.07.11.08.19l.36,1.67c.36.38.79.69,1.31.93s1.04.36,1.57.36c.75,0,1.34-.2,1.77-.61.43-.4.64-.95.64-1.64,0-.6-.15-1.08-.47-1.45s-.7-.66-1.18-.89c-.47-.23-.96-.44-1.47-.62-1.16-.43-1.98-.9-2.46-1.42s-.72-1.15-.71-1.89c.01-.71.21-1.29.59-1.75s.88-.81,1.49-1.03c.61-.23,1.26-.34,1.96-.34.91,0,1.77.2,2.58.61l.5.04c.12.01.18.08.21.21l.07,2.48c-.09.03-.2.05-.32.06-.12.02-.21.03-.27.03-.13,0-.21-.07-.24-.21l-.36-1.18c-.17-.33-.45-.61-.83-.83-.38-.22-.86-.33-1.44-.33-.39,0-.77.06-1.13.18-.37.13-.66.31-.89.57-.22.25-.34.6-.35,1.02,0,.46.11.85.35,1.16.23.31.54.57.92.78.38.21.78.39,1.2.56.46.18.92.37,1.38.6.46.22.89.48,1.27.79.39.3.7.66.94,1.06s.36.89.36,1.45c0,.74-.19,1.38-.57,1.92-.37.54-.89.96-1.53,1.26-.65.29-1.37.44-2.17.44ZM248.86,243.85s.01-.14.04-.28c.03-.14.07-.25.11-.33.43-.03.72-.15.88-.36s.25-.56.26-1.03l.24-7.83c.01-.37-.02-.64-.08-.81s-.18-.28-.36-.33c-.18-.06-.44-.09-.77-.12,0-.15.01-.29.04-.42.02-.13.04-.23.05-.28.03-.12.1-.18.19-.18h1.78c.38,0,.63.14.75.4l3.71,8.14s.04.04.06.04c.02,0,.03-.01.04-.04l4.1-8.04c.17-.34.45-.5.81-.5h1.89c.12,0,.17.06.17.18,0,.05-.02.14-.05.28-.03.14-.07.25-.11.33-.43.01-.74.07-.95.18s-.3.4-.29.87l.31,8.13c.02.48.06.81.11.97.05.16.17.25.34.28.12.01.25.02.41.03.15,0,.29.01.41.01,0,.31-.02.55-.07.71-.04.12-.1.17-.19.17h-3.59c-.11,0-.17-.06-.17-.17,0-.05.01-.14.04-.28.03-.14.07-.25.11-.33.43-.03.69-.15.8-.36.11-.21.16-.56.15-1.03l-.16-6.88s-.01-.07-.03-.07c-.03,0-.05.02-.07.05l-3.74,7.21c-.09.17-.23.26-.4.26h-.45c-.17,0-.31-.09-.4-.26l-3.26-7.02s-.04-.07-.09-.05c-.05.01-.07.05-.07.1l-.21,6.66c-.01.52.03.85.11.99.09.15.21.23.37.25.09.01.24.02.46.03s.38.01.49.01c0,.31-.02.55-.07.71-.03.12-.1.17-.19.17h-3.35c-.11,0-.17-.06-.17-.17ZM272.08,244.04l-8.06-.02c-.11,0-.17-.06-.17-.17,0-.05.01-.14.04-.28.03-.14.07-.25.11-.33.43-.04.72-.16.89-.37.17-.21.25-.54.25-1.02v-7.89c0-.39-.02-.67-.07-.83-.05-.16-.15-.26-.3-.3s-.4-.06-.74-.06c0-.15.01-.29.04-.42.02-.13.04-.23.05-.28.03-.12.1-.18.19-.18h7.54c.13,0,.21.03.26.08.05.05.07.14.09.27l.14,2.15c-.07.04-.17.06-.31.09s-.24.04-.29.04c-.15,0-.24-.07-.26-.19l-.14-.73c-.05-.28-.12-.46-.21-.54-.09-.08-.28-.12-.56-.12l-2.7-.04c-.34-.01-.58.01-.72.06-.14.06-.23.16-.27.31-.04.16-.05.4-.05.72v3.08h2.3c.47,0,.78-.06.93-.17s.22-.34.23-.68c.08-.05.19-.08.32-.1.13-.02.22-.03.27-.03.12,0,.17.06.17.17l-.07,2.9c0,.09-.06.15-.17.19-.06.02-.15.03-.28.06-.13.02-.25.03-.38.03,0-.4-.02-.7-.06-.9-.04-.2-.13-.33-.28-.39-.15-.07-.37-.1-.69-.1h-2.3v3.77c0,.52.07.85.21,1,.14.14.35.21.64.2l3-.07c.33-.02.59-.07.77-.16.18-.1.31-.27.39-.52l.28-.8c.06-.13.14-.19.26-.19.06,0,.15.02.28.05.13.04.22.07.29.11l-.38,2.16c-.06.28-.22.41-.48.41ZM276.68,244.02c-.12,0-.17-.06-.17-.17,0-.05.02-.14.05-.28.03-.14.07-.25.11-.33.51-.03.86-.15,1.04-.36.19-.21.28-.56.28-1.03v-8.93h-2.62c-.28.02-.46.06-.54.14-.09.08-.16.26-.22.53l-.19.85c-.03.13-.12.19-.26.19-.06,0-.15-.01-.29-.04-.14-.02-.24-.05-.31-.09l.17-2.29c.01-.13.04-.22.09-.27.05-.06.13-.08.26-.08h9.53c.13,0,.21.03.26.08.05.05.08.14.09.27l.17,2.29c-.07.04-.17.07-.31.09-.14.03-.24.04-.3.04-.14,0-.22-.06-.26-.19l-.19-.85c-.06-.28-.13-.45-.22-.53-.09-.08-.27-.13-.55-.14h-2.63v8.93c0,.51.03.84.07.99.05.15.16.23.33.26.12.01.27.02.46.03.19,0,.35.01.46.01,0,.31-.02.55-.07.71-.04.12-.1.17-.19.17h-4.04ZM290.7,244.29c-.84,0-1.62-.15-2.35-.44-.72-.29-1.35-.71-1.9-1.26-.54-.54-.97-1.19-1.27-1.92-.31-.74-.46-1.55-.46-2.43,0-.96.17-1.84.51-2.64.34-.8.81-1.5,1.42-2.09.61-.6,1.31-1.05,2.12-1.38.81-.32,1.68-.48,2.6-.48s1.68.15,2.42.46c.73.3,1.36.73,1.9,1.27.53.54.94,1.18,1.24,1.92.3.73.44,1.53.44,2.4,0,.95-.16,1.83-.49,2.63-.33.81-.79,1.51-1.39,2.1-.6.59-1.3,1.04-2.11,1.38-.81.33-1.71.49-2.68.49ZM291.15,243.23c.89,0,1.67-.21,2.34-.64.67-.43,1.19-1.02,1.56-1.79.37-.76.56-1.64.56-2.63,0-1.07-.19-2.02-.58-2.84-.39-.82-.93-1.46-1.64-1.93-.71-.46-1.53-.7-2.48-.7-.83,0-1.58.22-2.25.65s-1.19,1.03-1.58,1.79c-.39.76-.59,1.63-.59,2.62,0,1.08.2,2.04.62,2.86.41.82.97,1.46,1.67,1.92.7.46,1.5.69,2.37.69ZM306.67,244.04l-8-.02c-.11,0-.17-.06-.17-.17,0-.05.01-.14.04-.28.03-.14.07-.25.11-.33.43-.04.72-.16.89-.37.17-.21.25-.54.25-1.02v-7.89c0-.39-.02-.67-.07-.83-.05-.16-.15-.26-.3-.3s-.4-.06-.74-.06c0-.15.01-.29.04-.42.02-.13.04-.23.05-.28.03-.12.1-.18.19-.18h3.78c.12,0,.17.06.17.18,0,.05-.02.14-.04.28-.03.14-.07.25-.11.33-.51.01-.85.11-1.02.3s-.26.52-.26.99v7.89c0,.52.07.84.21.97s.35.19.64.17l2.93-.07c.34-.02.59-.09.75-.23.17-.14.3-.33.41-.59l.35-.86c.06-.13.14-.19.26-.19.06,0,.15.02.28.04.13.03.22.06.29.1l-.43,2.43c-.06.28-.22.41-.49.41ZM314.26,244.29c-.84,0-1.62-.15-2.35-.44-.72-.29-1.35-.71-1.9-1.26-.54-.54-.97-1.19-1.27-1.92-.31-.74-.46-1.55-.46-2.43,0-.96.17-1.84.51-2.64.34-.8.81-1.5,1.42-2.09.61-.6,1.31-1.05,2.12-1.38.81-.32,1.68-.48,2.6-.48s1.68.15,2.42.46c.73.3,1.36.73,1.9,1.27.53.54.94,1.18,1.24,1.92.3.73.44,1.53.44,2.4,0,.95-.16,1.83-.49,2.63-.33.81-.79,1.51-1.39,2.1-.6.59-1.3,1.04-2.11,1.38-.81.33-1.71.49-2.68.49ZM314.72,243.23c.89,0,1.67-.21,2.34-.64.67-.43,1.19-1.02,1.56-1.79.37-.76.56-1.64.56-2.63,0-1.07-.19-2.02-.58-2.84-.39-.82-.93-1.46-1.64-1.93-.71-.46-1.53-.7-2.48-.7-.83,0-1.58.22-2.25.65s-1.19,1.03-1.58,1.79c-.39.76-.59,1.63-.59,2.62,0,1.08.2,2.04.62,2.86.41.82.97,1.46,1.67,1.92.7.46,1.5.69,2.37.69ZM328.63,244.3c-.82,0-1.6-.14-2.35-.41-.75-.28-1.41-.69-1.99-1.23-.58-.53-1.04-1.19-1.38-1.95s-.5-1.63-.5-2.6.16-1.8.47-2.59c.31-.79.76-1.48,1.34-2.06.59-.59,1.27-1.03,2.05-1.35s1.64-.47,2.57-.47c.59,0,1.18.05,1.77.15.59.1,1.13.27,1.63.53h.5c.14,0,.21.06.22.19l.21,2.78c-.09.04-.2.06-.32.08-.12.02-.21.03-.27.03-.12,0-.2-.06-.24-.19l-.3-.8c-.1-.29-.28-.54-.52-.76-.24-.21-.53-.39-.87-.52-.32-.16-.68-.28-1.07-.35-.39-.07-.76-.11-1.12-.11-.85,0-1.61.21-2.27.64-.66.42-1.17,1.01-1.53,1.78-.36.77-.54,1.68-.53,2.71.01,1.11.23,2.06.66,2.85.43.79.99,1.4,1.69,1.82.7.42,1.46.64,2.3.64.44,0,.9-.04,1.38-.1.48-.07.93-.18,1.34-.36v-2.6c0-.4-.05-.69-.15-.85s-.26-.26-.48-.29c-.23-.04-.53-.06-.91-.06,0-.15.01-.29.04-.42s.04-.23.05-.29c.04-.11.1-.17.19-.17h3.95c.12,0,.17.06.17.17,0,.05-.02.14-.06.28-.04.14-.09.25-.13.33-.43.01-.7.11-.81.3s-.17.52-.17.99v2.96c-.68.5-1.43.84-2.23,1.02s-1.58.28-2.33.28ZM335.58,244.02c-.12,0-.17-.06-.17-.17,0-.05.02-.14.04-.28.03-.14.07-.25.11-.33.51-.03.86-.15,1.04-.36s.28-.56.28-1.03v-7.89c0-.37-.03-.64-.08-.8s-.17-.26-.36-.31c-.18-.05-.47-.08-.85-.09,0-.15.01-.29.03-.42.02-.13.04-.23.05-.28.04-.12.1-.18.19-.18h3.95c.12,0,.17.06.17.18,0,.05-.02.14-.04.28-.03.14-.07.25-.11.33-.46.04-.79.14-.99.32-.2.18-.3.5-.3.98v7.89c0,.51.02.84.07.99.05.15.16.23.33.26.12.01.27.02.46.03s.34.01.46.01c0,.31-.02.55-.07.71-.03.12-.1.17-.19.17h-4.04ZM349.18,244.04l-8.06-.02c-.11,0-.17-.06-.17-.17,0-.05.01-.14.04-.28.03-.14.07-.25.11-.33.43-.04.72-.16.89-.37.17-.21.25-.54.25-1.02v-7.89c0-.39-.02-.67-.07-.83-.05-.16-.15-.26-.3-.3s-.4-.06-.74-.06c0-.15.01-.29.04-.42.02-.13.04-.23.05-.28.03-.12.1-.18.19-.18h7.54c.13,0,.21.03.26.08.05.05.07.14.09.27l.14,2.15c-.07.04-.17.06-.31.09s-.24.04-.29.04c-.15,0-.24-.07-.26-.19l-.14-.73c-.05-.28-.12-.46-.21-.54-.09-.08-.28-.12-.56-.12l-2.7-.04c-.34-.01-.58.01-.72.06-.14.06-.23.16-.27.31-.04.16-.05.4-.05.72v3.08h2.3c.47,0,.78-.06.93-.17s.22-.34.23-.68c.08-.05.19-.08.32-.1.13-.02.22-.03.27-.03.12,0,.17.06.17.17l-.07,2.9c0,.09-.06.15-.17.19-.06.02-.15.03-.28.06-.13.02-.25.03-.38.03,0-.4-.02-.7-.06-.9-.04-.2-.13-.33-.28-.39-.15-.07-.37-.1-.69-.1h-2.3v3.77c0,.52.07.85.21,1,.14.14.35.21.64.2l3-.07c.33-.02.59-.07.77-.16.18-.1.31-.27.39-.52l.28-.8c.06-.13.14-.19.26-.19.06,0,.15.02.28.05.13.04.22.07.29.11l-.38,2.16c-.06.28-.22.41-.48.41Z"/>
    <path class="st0" d="M94.3,181.86v41.55h-4.21v-38.11h-.37l-14.98,27.54h-1.92l-17.02-24.28h-.37l1.36,34.84h-4.21l1.55-42.38h1.24l19.5,27.78h.37l14.61-26.95h4.46ZM110.39,223.41v-41.55h18.88v2.91l-10.83-1.37c-1.9-.24-3.18-.36-3.84-.36v18.1c.54,0,1.81-.06,3.84-.18l10.15-.59v2.73l-10.15-.59c-2.02-.12-3.3-.18-3.84-.18v19.89c.74,0,2.04-.12,3.9-.36l10.96-1.37v2.91h-19.07ZM142.46,223.41v-41.55h13.62c4.79,0,8.95.87,12.5,2.61,3.55,1.74,6.31,4.17,8.29,7.27,1.98,3.11,2.97,6.74,2.97,10.89s-.99,7.79-2.97,10.89c-1.98,3.11-4.75,5.53-8.29,7.27-3.55,1.74-7.72,2.61-12.5,2.61h-13.62ZM156.08,183.28h-9.41v38.7h9.41c5.98,0,10.66-1.7,14.02-5.1,3.36-3.4,5.05-8.15,5.05-14.25s-1.68-10.84-5.05-14.25c-3.36-3.4-8.04-5.1-14.02-5.1ZM192.85,223.41v-41.55h13.62c4.79,0,8.95.87,12.5,2.61,3.55,1.74,6.31,4.17,8.29,7.27,1.98,3.11,2.97,6.74,2.97,10.89s-.99,7.79-2.97,10.89c-1.98,3.11-4.75,5.53-8.29,7.27-3.55,1.74-7.72,2.61-12.5,2.61h-13.62ZM206.46,183.28h-9.41v38.7h9.41c5.98,0,10.66-1.7,14.02-5.1,3.36-3.4,5.05-8.15,5.05-14.25s-1.68-10.84-5.05-14.25c-3.36-3.4-8.04-5.1-14.02-5.1ZM243.23,223.41v-41.55h18.88v2.91l-10.83-1.37c-1.9-.24-3.18-.36-3.84-.36v18.1c.54,0,1.82-.06,3.84-.18l10.15-.59v2.73l-10.15-.59c-2.02-.12-3.3-.18-3.84-.18v19.89c.74,0,2.04-.12,3.9-.36l10.96-1.37v2.91h-19.07ZM275.3,181.86h8.29c4.37,0,7.77.88,10.18,2.64,2.41,1.76,3.62,4.22,3.62,7.39,0,2.45-.75,4.49-2.26,6.11-1.51,1.62-3.68,2.71-6.53,3.26v.36c2.72.52,4.95,1.74,6.69,3.68,1.73,1.94,3.03,4.33,3.9,7.18.78,2.61,1.56,4.64,2.32,6.08.76,1.45,1.61,2.48,2.54,3.12.93.63,2.03,1.09,3.31,1.37v.36h-2.54c-1.82,0-3.31-.32-4.49-.95-1.18-.63-2.18-1.7-3-3.21-.83-1.5-1.61-3.58-2.35-6.23-1.2-4.08-2.79-6.96-4.77-8.67-1.98-1.7-4.39-2.55-7.24-2.55h-.37v-1.07h.37c6.64,0,9.97-2.93,9.97-8.79s-3.12-8.67-9.35-8.67h-4.09v40.13h-4.21v-41.55ZM310.46,223.41l16.65-41.55h3.84l16.65,41.55h-4.52l-7.68-19.47h-14.05l-6.38,19.47h-4.52ZM327.54,184.95l-5.76,17.57h13.06l-6.93-17.57h-.37Z"/>
  </g>
</svg>