<?xml version="1.0" encoding="UTF-8"?>
<svg id="Layer_1" xmlns="http://www.w3.org/2000/svg" xmlns:xlink="http://www.w3.org/1999/xlink" version="1.1" viewBox="0 0 500 500">
  <!-- Generator: Adobe Illustrator 29.1.0, SVG Export Plug-In . SVG Version: 2.1.0 Build 142)  -->
  <defs>
    <style>
      .st0 {
        fill: url(#linear-gradient2);
        stroke: url(#linear-gradient3);
      }

      .st0, .st1 {
        stroke-miterlimit: 10;
      }

      .st1 {
        fill: url(#linear-gradient);
        stroke: url(#linear-gradient1);
        stroke-width: 2px;
      }

      .st2 {
        font-family: Raleway-Bold, 'Raleway Bold';
        font-size: 101.22px;
        font-weight: 700;
      }

      .st2, .st3 {
        fill: #caae7c;
      }

      .st2, .st4 {
        display: none;
      }

      .st5 {
        fill: #d6b07a;
      }

      .st4 {
        font-family: BebasNeuePro-Regular, 'BebasNeuePro Regular';
        font-size: 168.7px;
      }
    </style>
    <linearGradient id="linear-gradient" x1="415.48" y1="415.48" x2="84.52" y2="84.52" gradientUnits="userSpaceOnUse">
      <stop offset="0" stop-color="#18151a"/>
      <stop offset=".07" stop-color="#121014"/>
      <stop offset=".15" stop-color="#040304"/>
      <stop offset=".17" stop-color="#010101"/>
      <stop offset=".61" stop-color="#221e25"/>
      <stop offset=".93" stop-color="#3d3642"/>
    </linearGradient>
    <linearGradient id="linear-gradient1" x1="12.82" y1="250" x2="487.18" y2="250" gradientUnits="userSpaceOnUse">
      <stop offset=".03" stop-color="#f6dda5"/>
      <stop offset=".18" stop-color="#a6885b"/>
      <stop offset=".67" stop-color="#e3c893"/>
      <stop offset=".71" stop-color="#f6dda5"/>
      <stop offset=".79" stop-color="#b8905d"/>
      <stop offset=".95" stop-color="#f6dda5"/>
      <stop offset="1" stop-color="#ab8c5e"/>
    </linearGradient>
    <linearGradient id="linear-gradient2" x1="97.74" y1="97.74" x2="402.26" y2="402.26" xlink:href="#linear-gradient"/>
    <linearGradient id="linear-gradient3" x1="32" y1="250" x2="468" y2="250" xlink:href="#linear-gradient1"/>
  </defs>
  <path class="st1" d="M486.18,250c0,24.82-16.08,46.79-23.35,69.18-7.54,23.2-7.69,50.38-21.75,69.7-14.19,19.51-40.08,28-59.58,42.19-19.31,14.06-35.3,36.14-58.5,43.68-22.38,7.27-48.19-.96-73-.96s-50.62,8.23-73,.96c-23.2-7.53-39.19-29.62-58.5-43.68-19.5-14.2-45.39-22.69-59.58-42.2-14.05-19.31-14.21-46.49-21.74-69.7-7.27-22.39-23.35-44.36-23.35-69.18s16.08-46.79,23.35-69.18c7.53-23.21,7.69-50.38,21.75-69.7,14.19-19.51,40.08-28,59.58-42.19,19.3-14.06,35.3-36.14,58.5-43.68,22.38-7.27,48.19.96,73,.96s50.62-8.23,73-.96c23.2,7.53,39.2,29.62,58.5,43.68,19.51,14.2,45.4,22.69,59.58,42.19,14.06,19.32,14.21,46.49,21.75,69.7,7.27,22.39,23.35,44.36,23.35,69.17Z"/>
  <path class="st0" d="M301.58,459.06c-7.22,0-15.02-.89-23.28-1.84-9.13-1.04-18.57-2.12-28.3-2.12s-19.17,1.08-28.3,2.12c-8.27.94-16.07,1.83-23.28,1.84-6.21,0-11.32-.68-15.65-2.09-11.32-3.68-21.58-13.17-32.43-23.21-6.55-6.06-13.33-12.33-20.84-17.8-7.63-5.55-15.75-10.13-23.61-14.55-12.85-7.23-24.97-14.06-31.86-23.53-6.8-9.35-9.57-22.99-12.5-37.43-1.79-8.85-3.65-18.01-6.58-27.04-2.82-8.69-6.64-16.96-10.33-24.96-6.23-13.48-12.1-26.2-12.1-38.45s5.87-24.97,12.1-38.44c3.7-8,7.52-16.27,10.34-24.97,2.93-9.03,4.79-18.18,6.58-27.03,2.93-14.44,5.7-28.08,12.5-37.43,6.89-9.48,19.02-16.31,31.87-23.54,7.86-4.42,15.98-9,23.6-14.54,7.52-5.48,14.29-11.74,20.84-17.8,10.86-10.05,21.11-19.54,32.44-23.22,4.32-1.41,9.44-2.09,15.65-2.09,7.22,0,15.02.89,23.28,1.84,9.13,1.04,18.57,2.12,28.3,2.12s19.17-1.08,28.3-2.12c8.27-.95,16.06-1.84,23.28-1.84,6.21,0,11.32.68,15.65,2.09,11.34,3.68,21.59,13.17,32.45,23.22,6.54,6.06,13.31,12.32,20.82,17.79,7.63,5.55,15.75,10.12,23.6,14.54,12.85,7.23,24.98,14.07,31.88,23.54,6.81,9.35,9.57,22.98,12.5,37.42,1.79,8.86,3.66,18.02,6.59,27.05,2.82,8.69,6.64,16.96,10.33,24.96,6.23,13.48,12.1,26.2,12.1,38.44s-5.88,24.97-12.1,38.44c-3.7,8-7.52,16.27-10.34,24.97-2.93,9.03-4.79,18.19-6.59,27.05-2.93,14.44-5.69,28.07-12.5,37.42-6.89,9.48-19.02,16.31-31.87,23.54-7.86,4.42-15.98,9-23.6,14.54-7.52,5.48-14.29,11.74-20.84,17.8-10.86,10.05-21.1,19.54-32.44,23.22-4.32,1.41-9.44,2.09-15.65,2.09Z"/>
  <text class="st2" transform="translate(152.63 370.92)"><tspan x="0" y="0">MDL</tspan></text>
  <text class="st4" transform="translate(76.92 245.19)"><tspan class="st5" x="0" y="0">2</tspan><tspan class="st3" x="86.54" y="0">500</tspan></text>
</svg>