<?xml version="1.0" encoding="UTF-8"?>
<svg id="Layer_1" xmlns="http://www.w3.org/2000/svg" xmlns:xlink="http://www.w3.org/1999/xlink" version="1.1" viewBox="0 0 400 200">
  <!-- Generator: Adobe Illustrator 29.1.0, SVG Export Plug-In . SVG Version: 2.1.0 Build 142)  -->
  <defs>
    <style>
      .st0 {
        fill: url(#linear-gradient1);
      }

      .st1 {
        fill: url(#linear-gradient);
      }

      .st2 {
        fill: #cda356;
      }
    </style>
    <linearGradient id="linear-gradient" x1="146.35" y1="95.72" x2="350.32" y2="95.72" gradientUnits="userSpaceOnUse">
      <stop offset="0" stop-color="#18151a"/>
      <stop offset=".07" stop-color="#121014"/>
      <stop offset=".15" stop-color="#040304"/>
      <stop offset=".17" stop-color="#010101"/>
      <stop offset=".61" stop-color="#221e25"/>
      <stop offset=".93" stop-color="#3d3642"/>
    </linearGradient>
    <linearGradient id="linear-gradient1" x1="50.32" y1="99.97" x2="136.72" y2="99.97" xlink:href="#linear-gradient"/>
  </defs>
  <g>
    <path class="st2" d="M146.07,122.59s.01-.12.03-.23c.02-.11.05-.19.09-.26.33-.02.56-.11.7-.28.13-.17.2-.43.2-.8v-6.15c0-.3-.02-.51-.05-.64-.04-.13-.11-.21-.24-.24s-.31-.05-.57-.05c0-.12,0-.23.03-.33.02-.1.03-.18.04-.22.02-.07.04-.11.08-.12.04,0,.06-.01.07-.01h3.13c1.74,0,3.08.38,4.01,1.13.94.75,1.4,1.88,1.4,3.37,0,1-.23,1.88-.7,2.63-.47.76-1.15,1.34-2.05,1.75-.9.41-2,.6-3.3.57h-2.73c-.09,0-.14-.04-.14-.12ZM148.39,121.02c0,.22.02.39.05.53.03.14.12.23.26.29.14.06.39.09.74.09.84,0,1.57-.15,2.2-.46.63-.31,1.12-.77,1.47-1.39.35-.62.52-1.4.52-2.34s-.17-1.65-.5-2.19c-.33-.54-.79-.93-1.38-1.16-.59-.23-1.28-.35-2.06-.35h-.55c-.26,0-.45.06-.57.19-.12.13-.18.34-.18.65v6.15ZM162.28,122.72h-6.28c-.09-.01-.14-.06-.14-.15,0-.04.01-.11.03-.22.02-.11.05-.19.09-.26.33-.03.56-.12.7-.28.13-.16.2-.43.2-.8v-6.15c0-.31-.02-.52-.05-.65-.04-.13-.11-.2-.24-.24s-.31-.05-.57-.05c0-.12,0-.23.03-.33.02-.1.03-.18.04-.22.03-.09.08-.14.15-.14h5.88c.1,0,.17.02.2.06.04.04.06.11.07.21l.11,1.67c-.05.03-.14.05-.24.07-.11.02-.18.03-.23.03-.12,0-.18-.05-.2-.15l-.11-.57c-.04-.22-.09-.36-.16-.42-.07-.06-.22-.09-.43-.09l-2.11-.03c-.26,0-.45,0-.56.05-.11.04-.18.12-.21.24-.03.12-.04.31-.04.56v2.4h1.8c.37,0,.61-.04.72-.14.11-.09.17-.27.18-.53.06-.04.15-.06.25-.07.1-.01.17-.02.21-.02.09,0,.14.05.14.14l-.05,2.26c0,.07-.05.12-.14.15-.05,0-.12.02-.22.04-.1.02-.2.03-.3.03,0-.32-.02-.55-.05-.7-.03-.15-.1-.25-.22-.3-.11-.05-.29-.07-.53-.07h-1.8v2.94c0,.41.05.66.16.78s.27.16.5.16l2.34-.05c.26,0,.46-.05.6-.12.14-.07.24-.21.3-.41l.22-.62c.04-.1.11-.15.2-.15.04,0,.12.01.22.04.1.03.18.05.23.08l-.3,1.69c-.05.22-.17.32-.38.32ZM163.7,122.71c-.09,0-.14-.04-.14-.14,0-.04.01-.11.03-.22.02-.11.05-.19.09-.26.33-.02.56-.11.7-.28.13-.17.2-.43.2-.8v-6.15c0-.31-.02-.52-.05-.65-.04-.13-.11-.2-.24-.24s-.31-.05-.57-.05c0-.12,0-.23.03-.33.02-.1.03-.18.04-.22.03-.09.08-.14.15-.14h3.27c1.07,0,1.9.21,2.5.63.59.42.89,1.02.89,1.79,0,.65-.2,1.2-.59,1.65-.39.45-.9.8-1.52,1.04.51.78.94,1.42,1.27,1.9.33.49.62.86.85,1.11.23.26.45.43.64.52.19.09.4.14.63.14.02.11.01.23-.02.37-.03.14-.07.24-.11.3-.32.13-.64.19-.97.19-.29,0-.54-.07-.74-.22-.21-.14-.46-.43-.76-.86l-1.99-3.16c-.32.05-.65.07-.99.07-.14,0-.27,0-.41-.01v2.31c0,.4.02.65.05.77.04.12.12.18.26.2.07,0,.17.02.29.02.12,0,.23,0,.32,0,0,.24-.02.43-.05.55-.03.09-.08.14-.15.14h-2.9ZM165.88,117.86c.33.06.65.09.96.09.83,0,1.43-.18,1.82-.54.38-.36.57-.9.57-1.61,0-.6-.19-1.06-.57-1.38-.38-.32-.92-.48-1.62-.48-.32,0-.59.02-.81.07-.14.04-.24.13-.28.27-.05.14-.07.34-.07.59v2.99ZM172.2,122.57s.01-.11.03-.22c.02-.11.05-.19.09-.26.33-.02.56-.11.69-.28.13-.17.19-.43.2-.8l.19-6.11c0-.29-.01-.5-.06-.63-.05-.13-.14-.22-.28-.26-.14-.04-.34-.07-.6-.09,0-.12,0-.23.03-.33.02-.1.03-.18.04-.22.03-.09.08-.14.15-.14h1.39c.3,0,.49.1.58.31l2.89,6.35s.03.03.05.03.02,0,.03-.03l3.2-6.27c.14-.26.35-.39.63-.39h1.47c.09,0,.14.05.14.14,0,.04-.01.11-.03.22-.02.11-.05.19-.09.26-.33,0-.58.06-.74.14-.16.09-.23.31-.22.68l.24,6.34c.02.38.05.63.09.76.04.13.13.2.26.22.09,0,.2.02.32.02.12,0,.23,0,.32,0,0,.24-.02.43-.05.55-.03.09-.08.14-.15.14h-2.8c-.09,0-.14-.04-.14-.14,0-.04.01-.11.03-.22.02-.11.05-.19.09-.26.33-.02.54-.11.63-.28.09-.17.12-.43.11-.8l-.12-5.36s0-.05-.03-.05-.04.01-.05.04l-2.92,5.62c-.07.14-.18.2-.31.2h-.35c-.14,0-.24-.07-.31-.2l-2.54-5.47s-.03-.05-.07-.04c-.04,0-.05.04-.05.08l-.16,5.19c0,.41.02.66.09.78.07.11.16.18.29.2.07,0,.19.02.36.02.17,0,.29,0,.39,0,0,.24-.02.43-.05.55-.03.09-.08.14-.15.14h-2.61c-.09,0-.14-.04-.14-.14ZM183.62,122.71c-.09,0-.14-.04-.14-.14,0-.04.01-.11.03-.22.02-.11.05-.19.09-.26.28-.04.51-.14.68-.28.18-.14.34-.4.51-.79l3.21-7.62c.04-.11.1-.2.16-.26.06-.07.14-.1.24-.1h.45l2.92,7.66c.14.36.28.65.4.86.12.21.27.34.45.39.07.02.16.03.26.04.1,0,.21.02.32.03,0,.09,0,.19-.02.31-.02.12-.04.2-.06.24-.03.09-.08.14-.15.14h-2.97c-.09,0-.14-.04-.14-.14,0-.04.01-.11.03-.22.02-.11.05-.19.09-.26.23,0,.4-.04.5-.08.1-.04.15-.14.15-.28,0-.09-.02-.2-.06-.34-.04-.14-.1-.31-.17-.51l-.5-1.38h-3.53l-.62,1.54c-.06.15-.11.28-.15.39-.04.11-.05.2-.05.27,0,.14.1.24.3.28.07,0,.16.02.27.02.11,0,.22,0,.32,0,0,.24-.02.43-.05.55-.03.09-.08.14-.15.14h-2.63ZM186.71,118.7h2.9l-1.31-3.55s-.03-.07-.07-.07-.06.02-.08.07l-1.45,3.55ZM195.25,122.71c-.09,0-.14-.04-.14-.14,0-.04.01-.11.03-.22.02-.11.05-.19.09-.26.4-.02.67-.11.81-.28.14-.17.22-.43.22-.8v-6.96h-2.04c-.22,0-.36.05-.43.11-.07.06-.12.2-.17.42l-.15.66c-.03.1-.09.15-.2.15-.05,0-.12,0-.23-.03-.11-.02-.19-.04-.24-.07l.14-1.78c0-.1.03-.17.07-.21.04-.04.1-.06.2-.06h7.43c.1,0,.17.02.2.06.04.04.06.11.07.21l.14,1.78c-.05.03-.14.05-.24.07-.11.02-.18.03-.23.03-.11,0-.18-.05-.2-.15l-.15-.66c-.05-.22-.1-.36-.17-.42-.07-.06-.21-.1-.43-.11h-2.05v6.96c0,.4.02.65.05.77.04.12.12.18.26.2.09,0,.21.02.36.02.15,0,.27,0,.36,0,0,.24-.02.43-.05.55-.03.09-.08.14-.15.14h-3.15ZM206.18,122.91c-.66,0-1.27-.11-1.83-.34-.56-.23-1.06-.56-1.48-.98-.42-.42-.75-.92-.99-1.5-.24-.58-.36-1.21-.36-1.89,0-.75.13-1.43.4-2.06.27-.63.63-1.17,1.11-1.63.47-.46,1.02-.82,1.65-1.07.63-.25,1.31-.38,2.03-.38s1.31.12,1.88.36c.57.24,1.06.57,1.48.99.41.42.74.92.97,1.49.23.57.34,1.2.34,1.87,0,.74-.13,1.42-.39,2.05-.26.63-.62,1.18-1.08,1.63-.46.46-1.01.82-1.65,1.07-.63.26-1.33.39-2.09.39ZM206.53,122.09c.69,0,1.3-.17,1.82-.5.52-.33.93-.8,1.22-1.39.29-.59.43-1.28.43-2.05,0-.84-.15-1.58-.45-2.22-.3-.64-.73-1.14-1.28-1.51-.55-.36-1.19-.55-1.93-.55-.65,0-1.23.17-1.75.51-.52.34-.93.8-1.24,1.4-.31.59-.46,1.27-.46,2.04,0,.85.16,1.59.48,2.23.32.64.75,1.14,1.3,1.5.55.36,1.17.54,1.85.54ZM218.63,122.72h-6.24c-.09-.01-.14-.06-.14-.15,0-.04.01-.11.03-.22.02-.11.05-.19.09-.26.33-.03.56-.12.7-.28.13-.16.2-.43.2-.8v-6.15c0-.31-.02-.52-.05-.65-.04-.13-.11-.2-.24-.24s-.31-.05-.57-.05c0-.12,0-.23.03-.33.02-.1.03-.18.04-.22.03-.09.08-.14.15-.14h2.94c.09,0,.14.05.14.14,0,.04-.01.11-.03.22-.02.11-.05.19-.09.26-.4,0-.66.09-.8.24-.14.15-.2.41-.2.78v6.15c0,.41.05.66.16.76.11.1.27.14.5.14l2.28-.05c.26,0,.46-.07.59-.18.13-.11.24-.26.32-.46l.27-.68c.04-.1.11-.15.2-.15.04,0,.12.01.22.03.1.02.18.05.23.07l-.34,1.89c-.05.22-.17.32-.38.32ZM224.55,122.91c-.66,0-1.27-.11-1.83-.34-.56-.23-1.06-.56-1.48-.98-.42-.42-.75-.92-.99-1.5-.24-.58-.36-1.21-.36-1.89,0-.75.13-1.43.4-2.06.27-.63.63-1.17,1.11-1.63.47-.46,1.02-.82,1.65-1.07.63-.25,1.31-.38,2.03-.38s1.31.12,1.88.36c.57.24,1.06.57,1.48.99.41.42.74.92.97,1.49.23.57.34,1.2.34,1.87,0,.74-.13,1.42-.39,2.05-.26.63-.62,1.18-1.08,1.63-.46.46-1.01.82-1.65,1.07-.63.26-1.33.39-2.09.39ZM224.9,122.09c.69,0,1.3-.17,1.82-.5.52-.33.93-.8,1.22-1.39.29-.59.43-1.28.43-2.05,0-.84-.15-1.58-.45-2.22-.3-.64-.73-1.14-1.28-1.51-.55-.36-1.19-.55-1.93-.55-.65,0-1.23.17-1.75.51-.52.34-.93.8-1.24,1.4-.31.59-.46,1.27-.46,2.04,0,.85.16,1.59.48,2.23.32.64.75,1.14,1.3,1.5.55.36,1.17.54,1.85.54ZM235.75,122.92c-.64,0-1.25-.11-1.83-.32-.58-.22-1.1-.53-1.55-.95-.45-.42-.81-.93-1.07-1.52-.26-.59-.39-1.27-.39-2.03s.12-1.4.36-2.02c.24-.62.59-1.15,1.05-1.61.45-.45.99-.81,1.59-1.05.61-.25,1.28-.37,2.01-.37.46,0,.92.04,1.38.11.46.08.88.21,1.27.41h.39c.11,0,.17.05.18.15l.16,2.16c-.07.03-.16.05-.25.06-.09.01-.16.02-.21.02-.09,0-.15-.05-.19-.15l-.23-.62c-.08-.23-.22-.42-.41-.59-.19-.17-.41-.3-.68-.41-.25-.13-.53-.22-.83-.27-.3-.05-.59-.08-.87-.08-.67,0-1.26.16-1.77.49-.51.33-.91.79-1.2,1.39-.28.6-.42,1.3-.41,2.11,0,.86.18,1.61.51,2.22.33.62.77,1.09,1.32,1.42.54.33,1.14.49,1.79.49.34,0,.7-.02,1.07-.07.37-.05.72-.14,1.05-.28v-2.03c0-.32-.04-.54-.11-.66-.08-.13-.2-.2-.38-.23-.18-.03-.41-.04-.71-.04,0-.12,0-.23.03-.33.02-.1.03-.18.04-.22.03-.09.08-.14.15-.14h3.08c.09,0,.14.05.14.14,0,.04-.02.11-.05.22-.03.11-.07.19-.1.26-.33,0-.54.09-.63.24-.09.15-.14.41-.14.78v2.31c-.53.39-1.11.65-1.74.8-.63.14-1.23.22-1.82.22ZM247.98,112.04v13.1h-.95v-13.1h.95ZM259.69,122.91c-.62,0-1.22-.11-1.78-.33-.57-.22-1.07-.54-1.52-.96-.45-.42-.8-.93-1.06-1.52-.26-.59-.39-1.26-.39-2s.12-1.4.36-2.02c.24-.62.59-1.15,1.05-1.61s.99-.81,1.59-1.05c.61-.25,1.28-.37,2.01-.37.46,0,.88.05,1.28.15.39.1.78.25,1.17.45h.39c.11,0,.17.05.18.15l.16,2.23c-.07.03-.16.05-.25.06s-.16.02-.21.02c-.09,0-.15-.05-.19-.15l-.23-.69c-.1-.31-.28-.56-.55-.78-.27-.21-.58-.37-.94-.48-.36-.11-.72-.16-1.09-.16-.67,0-1.26.16-1.77.49-.51.32-.91.79-1.2,1.38-.28.6-.42,1.31-.41,2.13,0,.86.18,1.61.51,2.22.33.62.77,1.09,1.32,1.42.54.33,1.14.49,1.79.49.5,0,1.03-.1,1.57-.29.54-.19,1.04-.5,1.51-.93l.46.66c-.58.53-1.19.91-1.84,1.14-.65.23-1.29.34-1.92.34ZM269.19,122.91c-.66,0-1.27-.11-1.83-.34-.56-.23-1.06-.56-1.48-.98-.42-.42-.75-.92-.99-1.5-.24-.58-.36-1.21-.36-1.89,0-.75.13-1.43.4-2.06.27-.63.63-1.17,1.11-1.63s1.02-.82,1.65-1.07c.63-.25,1.31-.38,2.03-.38s1.31.12,1.88.36c.57.24,1.06.57,1.48.99.41.42.74.92.97,1.49.23.57.34,1.2.34,1.87,0,.74-.13,1.42-.39,2.05-.26.63-.62,1.18-1.08,1.63-.46.46-1.01.82-1.65,1.07-.63.26-1.33.39-2.09.39ZM269.54,122.09c.69,0,1.3-.17,1.82-.5.52-.33.93-.8,1.22-1.39.29-.59.43-1.28.43-2.05,0-.84-.15-1.58-.45-2.22-.3-.64-.73-1.14-1.28-1.51-.55-.36-1.19-.55-1.93-.55-.65,0-1.23.17-1.75.51-.52.34-.93.8-1.24,1.4-.31.59-.46,1.27-.46,2.04,0,.85.16,1.59.48,2.23.32.64.75,1.14,1.3,1.5.55.36,1.17.54,1.85.54ZM278.5,122.91c-.41,0-.83-.05-1.24-.16-.41-.11-.78-.24-1.11-.41-.32-.16-.56-.33-.7-.5l-.11-2.16c.07-.02.17-.03.28-.05.12-.01.2-.02.26-.02.08,0,.14.02.17.05.03.04.05.09.06.15l.28,1.3c.28.3.62.54,1.02.73.4.19.81.28,1.22.28.59,0,1.04-.16,1.38-.47.33-.32.5-.74.5-1.28,0-.47-.12-.84-.36-1.13s-.55-.52-.92-.7c-.37-.18-.75-.34-1.15-.49-.9-.33-1.54-.7-1.92-1.11-.38-.41-.56-.9-.55-1.47,0-.55.16-1,.46-1.36.3-.36.68-.63,1.16-.8.48-.18.99-.26,1.53-.26.71,0,1.38.16,2.01.47l.39.03c.09,0,.14.06.16.16l.05,1.93c-.07.02-.16.03-.25.05s-.16.02-.21.02c-.1,0-.16-.05-.19-.16l-.28-.92c-.14-.26-.35-.48-.65-.65-.3-.17-.67-.26-1.12-.26-.31,0-.6.05-.88.14s-.51.24-.69.44c-.18.2-.27.46-.28.8,0,.36.09.66.27.91.18.24.42.45.72.61.3.16.61.31.93.43.36.14.72.29,1.08.47.36.18.69.38.99.61.3.23.54.51.73.83.18.32.28.7.28,1.13,0,.58-.15,1.08-.44,1.5-.29.42-.69.75-1.2.98-.5.23-1.07.34-1.69.34ZM282.63,122.57s.01-.11.03-.22c.02-.11.05-.19.09-.26.33-.02.56-.11.69-.28.13-.17.19-.43.2-.8l.19-6.11c0-.29-.01-.5-.06-.63-.05-.13-.14-.22-.28-.26-.14-.04-.34-.07-.6-.09,0-.12,0-.23.03-.33.02-.1.03-.18.04-.22.03-.09.08-.14.15-.14h1.39c.3,0,.49.1.58.31l2.89,6.35s.03.03.05.03.02,0,.03-.03l3.2-6.27c.14-.26.35-.39.63-.39h1.47c.09,0,.14.05.14.14,0,.04-.01.11-.03.22-.02.11-.05.19-.09.26-.33,0-.58.06-.74.14-.16.09-.23.31-.22.68l.24,6.34c.02.38.05.63.09.76.04.13.13.2.26.22.09,0,.2.02.32.02.12,0,.23,0,.32,0,0,.24-.02.43-.05.55-.03.09-.08.14-.15.14h-2.8c-.09,0-.14-.04-.14-.14,0-.04.01-.11.03-.22.02-.11.05-.19.09-.26.33-.02.54-.11.63-.28.09-.17.12-.43.11-.8l-.12-5.36s0-.05-.03-.05-.04.01-.05.04l-2.92,5.62c-.07.14-.18.2-.31.2h-.35c-.14,0-.24-.07-.31-.2l-2.54-5.47s-.03-.05-.07-.04c-.04,0-.05.04-.05.08l-.16,5.19c0,.41.02.66.09.78.07.11.16.18.29.2.07,0,.19.02.36.02.17,0,.29,0,.39,0,0,.24-.02.43-.05.55-.03.09-.08.14-.15.14h-2.61c-.09,0-.14-.04-.14-.14ZM300.73,122.72h-6.28c-.09-.01-.14-.06-.14-.15,0-.04.01-.11.03-.22.02-.11.05-.19.09-.26.33-.03.56-.12.7-.28.13-.16.2-.43.2-.8v-6.15c0-.31-.02-.52-.05-.65-.04-.13-.11-.2-.24-.24s-.31-.05-.57-.05c0-.12,0-.23.03-.33.02-.1.03-.18.04-.22.03-.09.08-.14.15-.14h5.88c.1,0,.17.02.2.06.04.04.06.11.07.21l.11,1.67c-.05.03-.14.05-.24.07-.11.02-.18.03-.23.03-.12,0-.18-.05-.2-.15l-.11-.57c-.04-.22-.09-.36-.16-.42-.07-.06-.22-.09-.43-.09l-2.11-.03c-.26,0-.45,0-.56.05-.11.04-.18.12-.21.24-.03.12-.04.31-.04.56v2.4h1.8c.37,0,.61-.04.72-.14.11-.09.17-.27.18-.53.06-.04.15-.06.25-.07.1-.01.17-.02.21-.02.09,0,.14.05.14.14l-.05,2.26c0,.07-.05.12-.14.15-.05,0-.12.02-.22.04-.1.02-.2.03-.3.03,0-.32-.02-.55-.05-.7-.03-.15-.1-.25-.22-.3-.11-.05-.29-.07-.53-.07h-1.8v2.94c0,.41.05.66.16.78s.27.16.5.16l2.34-.05c.26,0,.46-.05.6-.12.14-.07.24-.21.3-.41l.22-.62c.04-.1.11-.15.2-.15.04,0,.12.01.22.04.1.03.18.05.23.08l-.3,1.69c-.05.22-.17.32-.38.32ZM304.32,122.71c-.09,0-.14-.04-.14-.14,0-.04.01-.11.03-.22.02-.11.05-.19.09-.26.4-.02.67-.11.81-.28.14-.17.22-.43.22-.8v-6.96h-2.04c-.22,0-.36.05-.43.11-.07.06-.12.2-.17.42l-.15.66c-.03.1-.09.15-.2.15-.05,0-.12,0-.23-.03-.11-.02-.19-.04-.24-.07l.14-1.78c0-.1.03-.17.07-.21.04-.04.1-.06.2-.06h7.43c.1,0,.17.02.2.06.04.04.06.11.07.21l.14,1.78c-.05.03-.14.05-.24.07-.11.02-.18.03-.23.03-.11,0-.18-.05-.2-.15l-.15-.66c-.05-.22-.1-.36-.17-.42-.07-.06-.21-.1-.43-.11h-2.05v6.96c0,.4.02.65.05.77.04.12.12.18.26.2.09,0,.21.02.36.02.15,0,.27,0,.36,0,0,.24-.02.43-.05.55-.03.09-.08.14-.15.14h-3.15ZM315.25,122.91c-.66,0-1.27-.11-1.83-.34-.56-.23-1.06-.56-1.48-.98-.42-.42-.75-.92-.99-1.5-.24-.58-.36-1.21-.36-1.89,0-.75.13-1.43.4-2.06.27-.63.63-1.17,1.11-1.63.47-.46,1.02-.82,1.65-1.07.63-.25,1.31-.38,2.03-.38s1.31.12,1.88.36c.57.24,1.06.57,1.48.99.41.42.74.92.97,1.49.23.57.34,1.2.34,1.87,0,.74-.13,1.42-.39,2.05-.26.63-.62,1.18-1.08,1.63-.46.46-1.01.82-1.65,1.07-.63.26-1.33.39-2.09.39ZM315.6,122.09c.69,0,1.3-.17,1.82-.5.52-.33.93-.8,1.22-1.39.29-.59.43-1.28.43-2.05,0-.84-.15-1.58-.45-2.22-.3-.64-.73-1.14-1.28-1.51-.55-.36-1.19-.55-1.93-.55-.65,0-1.23.17-1.75.51-.52.34-.93.8-1.24,1.4-.31.59-.46,1.27-.46,2.04,0,.85.16,1.59.48,2.23.32.64.75,1.14,1.3,1.5.55.36,1.17.54,1.85.54ZM327.71,122.72h-6.24c-.09-.01-.14-.06-.14-.15,0-.04.01-.11.03-.22.02-.11.05-.19.09-.26.33-.03.56-.12.7-.28.13-.16.2-.43.2-.8v-6.15c0-.31-.02-.52-.05-.65-.04-.13-.11-.2-.24-.24s-.31-.05-.57-.05c0-.12,0-.23.03-.33.02-.1.03-.18.04-.22.03-.09.08-.14.15-.14h2.94c.09,0,.14.05.14.14,0,.04-.01.11-.03.22-.02.11-.05.19-.09.26-.4,0-.66.09-.8.24-.14.15-.2.41-.2.78v6.15c0,.41.05.66.16.76.11.1.27.14.5.14l2.28-.05c.26,0,.46-.07.59-.18.13-.11.24-.26.32-.46l.27-.68c.04-.1.11-.15.2-.15.04,0,.12.01.22.03.1.02.18.05.23.07l-.34,1.89c-.05.22-.17.32-.38.32ZM333.62,122.91c-.66,0-1.27-.11-1.83-.34-.56-.23-1.06-.56-1.48-.98-.42-.42-.75-.92-.99-1.5-.24-.58-.36-1.21-.36-1.89,0-.75.13-1.43.4-2.06.27-.63.63-1.17,1.11-1.63s1.02-.82,1.65-1.07c.63-.25,1.31-.38,2.03-.38s1.31.12,1.88.36c.57.24,1.06.57,1.48.99.41.42.74.92.97,1.49.23.57.34,1.2.34,1.87,0,.74-.13,1.42-.39,2.05-.26.63-.62,1.18-1.08,1.63-.46.46-1.01.82-1.65,1.07-.63.26-1.33.39-2.09.39ZM333.97,122.09c.69,0,1.3-.17,1.82-.5.52-.33.93-.8,1.22-1.39.29-.59.43-1.28.43-2.05,0-.84-.15-1.58-.45-2.22-.3-.64-.73-1.14-1.28-1.51-.55-.36-1.19-.55-1.93-.55-.65,0-1.23.17-1.75.51-.52.34-.93.8-1.24,1.4-.31.59-.46,1.27-.46,2.04,0,.85.16,1.59.48,2.23.32.64.75,1.14,1.3,1.5.55.36,1.17.54,1.85.54ZM344.82,122.92c-.64,0-1.25-.11-1.83-.32-.58-.22-1.1-.53-1.55-.95-.45-.42-.81-.93-1.07-1.52-.26-.59-.39-1.27-.39-2.03s.12-1.4.36-2.02c.24-.62.59-1.15,1.05-1.61s.99-.81,1.59-1.05c.61-.25,1.28-.37,2.01-.37.46,0,.92.04,1.38.11.46.08.88.21,1.27.41h.39c.11,0,.17.05.18.15l.16,2.16c-.07.03-.16.05-.25.06-.09.01-.16.02-.21.02-.09,0-.15-.05-.19-.15l-.23-.62c-.08-.23-.22-.42-.41-.59-.19-.17-.41-.3-.68-.41-.25-.13-.53-.22-.83-.27-.3-.05-.59-.08-.87-.08-.67,0-1.26.16-1.77.49-.51.33-.91.79-1.2,1.39-.28.6-.42,1.3-.41,2.11,0,.86.18,1.61.51,2.22.33.62.77,1.09,1.32,1.42.54.33,1.14.49,1.79.49.34,0,.7-.02,1.07-.07.37-.05.72-.14,1.05-.28v-2.03c0-.32-.04-.54-.11-.66-.08-.13-.2-.2-.38-.23-.18-.03-.41-.04-.71-.04,0-.12,0-.23.03-.33.02-.1.03-.18.04-.22.03-.09.08-.14.15-.14h3.08c.09,0,.14.05.14.14,0,.04-.02.11-.05.22-.03.11-.07.19-.1.26-.33,0-.54.09-.63.24-.09.15-.14.41-.14.78v2.31c-.53.39-1.11.65-1.74.8-.63.14-1.23.22-1.82.22Z"/>
    <path class="st1" d="M146.63,105.43c-.19,0-.28-.09-.28-.28,0-.07.02-.22.07-.45.05-.22.11-.4.18-.53.69-.04,1.17-.23,1.44-.57.27-.34.41-.9.41-1.66v-12.72c0-.63-.04-1.08-.11-1.34-.07-.26-.24-.42-.49-.49-.25-.07-.65-.1-1.19-.1,0-.24.02-.47.06-.69.04-.21.07-.37.08-.46.06-.19.16-.28.31-.28h7.05c2.27,0,4.01.47,5.21,1.41,1.2.94,1.8,2.23,1.8,3.87,0,1.36-.38,2.54-1.15,3.52-.76.99-1.83,1.75-3.19,2.29-1.36.54-2.95.81-4.78.81-.3,0-.6,0-.89-.03v4.19c0,.82.04,1.35.11,1.59.07.24.25.38.53.42.15.02.35.03.6.04.25,0,.47.01.66.01,0,.5-.04.89-.11,1.15-.06.19-.16.28-.31.28h-6.01ZM151.16,95.95c.82.17,1.58.25,2.29.25,1.4,0,2.57-.39,3.51-1.16.94-.77,1.41-1.95,1.41-3.54s-.42-2.59-1.24-3.24c-.83-.65-1.97-.98-3.43-.98-.32,0-.65.01-.99.04-.35.03-.62.06-.82.1-.3.07-.49.26-.59.56-.09.3-.14.71-.14,1.23v6.74ZM162.01,89.72l2.96-3.58c.15-.19.3-.33.45-.42.15-.09.34-.14.56-.14h.42c.22,0,.41.05.56.14.15.09.3.23.45.42l2.99,3.55-.95.78-3.24-2.74-3.24,2.74-.95-.75ZM163.27,105.43c-.19,0-.28-.13-.28-.39,0-.32.06-.61.17-.87.67-.04,1.14-.19,1.41-.45.27-.26.42-.62.46-1.09.04-.32.06-.8.07-1.45,0-.65.01-1.34.01-2.07s0-1.44-.01-2.14c0-.7-.02-1.25-.04-1.66-.04-.67-.32-1.03-.84-1.09l-.95-.08c-.19,0-.28-.12-.28-.36s.09-.53.28-.87c.28-.07.68-.15,1.19-.22.51-.07,1.02-.14,1.51-.2.49-.06.85-.08,1.08-.08.62,0,.89.37.84,1.12-.04.54-.07,1.18-.08,1.92-.02.74-.03,1.51-.04,2.32,0,.81-.01,1.6-.01,2.36,0,.56,0,1.1.01,1.62,0,.52.02,1.02.04,1.48.02.24.07.42.17.52.09.1.2.16.31.18.17.02.39.04.66.06.27.02.53.03.77.03,0,.5-.04.89-.11,1.15-.06.19-.19.28-.39.28h-5.93ZM171.24,105.43c-.19,0-.28-.09-.28-.28,0-.13.01-.3.04-.5.03-.2.08-.36.15-.48.6-.04,1.02-.19,1.27-.45.25-.26.4-.62.43-1.09.04-.32.06-.8.07-1.45,0-.65.01-1.34.01-2.07s0-1.46-.01-2.19c0-.74-.02-1.31-.04-1.72-.04-.67-.32-1.03-.84-1.09l-.95-.08c-.19,0-.28-.12-.28-.36,0-.26.09-.56.28-.89.32-.07.71-.14,1.17-.21.47-.07.92-.13,1.37-.18.45-.06.78-.08,1.01-.08.37,0,.63.09.77.28.14.19.21.51.21.98v.53c.62-.63,1.32-1.14,2.13-1.51.8-.37,1.6-.56,2.4-.56,1.16,0,2.1.33,2.84.98.74.65,1.1,1.7,1.1,3.13v3.38c0,.89,0,1.65.01,2.28,0,.62.03,1.1.07,1.41.06.41.22.65.5.73.34.07.79.11,1.37.11,0,.48-.04.86-.11,1.12-.06.19-.16.28-.31.28h-5.87c-.19,0-.28-.09-.28-.28,0-.07,0-.21.03-.41.02-.2.07-.39.14-.57.6-.04,1.02-.19,1.26-.45.24-.26.39-.62.45-1.09.09-.78.14-1.83.14-3.13,0-.37,0-.74-.01-1.09,0-.35-.02-.69-.04-1.01-.06-1.1-.27-1.91-.63-2.43-.36-.52-.97-.78-1.83-.78-.6,0-1.19.12-1.79.36-.6.24-1.13.6-1.59,1.06,0,.71,0,1.45-.01,2.24,0,.78-.01,1.54-.01,2.26,0,.56,0,1.1.01,1.62,0,.52.02,1.02.04,1.48.02.24.07.42.17.52.09.1.2.16.31.18.34.06.76.08,1.29.08,0,.19,0,.4-.03.64-.02.24-.05.41-.08.5-.06.19-.19.28-.39.28h-5.65ZM192.94,105.85c-1.25,0-2.24-.31-2.98-.92-.74-.62-1.1-1.67-1.08-3.16l.06-7.66h-1.82c-.24,0-.36-.12-.36-.36,0-.2.05-.45.14-.73.09-.28.18-.48.25-.59h1.79v-2.24c0-.34.14-.57.42-.7.3-.15.7-.28,1.22-.39.51-.11.97-.17,1.38-.17-.06.3-.1.76-.14,1.38-.04.62-.07,1.33-.11,2.11h1.85c1.1,0,1.95-.05,2.54-.14-.09.62-.22,1.12-.39,1.51-.09.21-.31.31-.64.31h-3.41c-.04.93-.06,1.86-.07,2.8,0,.93-.01,1.77-.01,2.52v1.08c0,.33,0,.61.03.85.06.86.28,1.47.67,1.85.39.37.85.56,1.37.56.39,0,.8-.06,1.22-.18.42-.12.89-.3,1.41-.55.06.17.12.37.18.62.07.24.1.46.1.64,0,.21-.09.37-.28.5-.58.35-1.13.62-1.66.8-.53.18-1.09.27-1.66.27ZM200.51,99.14c.07,1.44.48,2.59,1.23,3.45.75.87,1.82,1.3,3.22,1.3.71,0,1.41-.14,2.1-.42.69-.28,1.27-.66,1.73-1.15.39.43.59.86.59,1.29-.02.28-.21.55-.59.81-.69.5-1.46.87-2.32,1.09-.86.22-1.67.34-2.43.34-1.14,0-2.19-.25-3.16-.74-.97-.49-1.75-1.23-2.33-2.19-.59-.97-.88-2.18-.88-3.63s.27-2.7.8-3.79c.53-1.09,1.29-1.94,2.26-2.56.98-.62,2.14-.92,3.48-.92,1.1,0,2.05.22,2.84.67.79.45,1.41,1.07,1.85,1.86.44.79.66,1.69.66,2.7,0,.52-.11.91-.32,1.16-.21.25-.58.4-1.1.43l-7.61.31ZM203.98,93.63c-.91,0-1.67.35-2.26,1.05-.6.7-.97,1.65-1.12,2.87l6.24-.36c.06-1.14-.17-2.01-.69-2.63-.51-.62-1.24-.92-2.17-.92ZM221.4,105.71c-.22-.06-.45-.19-.69-.41-.23-.21-.42-.51-.55-.88-.47.41-1.03.75-1.69,1.02-.66.27-1.46.41-2.39.41-1.23,0-2.23-.31-3.01-.94-.77-.62-1.16-1.46-1.16-2.5s.31-1.94.94-2.57c.62-.63,1.54-1.13,2.74-1.5,1.2-.36,2.66-.67,4.38-.91v-.81c.02-1.21-.18-2.04-.6-2.49-.42-.45-1.08-.67-1.97-.67-.62,0-1.09.13-1.41.39-.33.26-.55.6-.67,1.02-.12.42-.2.87-.24,1.36-.39,0-.8-.04-1.23-.13-.43-.08-.78-.2-1.06-.35-.28-.15-.39-.34-.34-.56.15-.58.5-1.11,1.06-1.59.56-.48,1.27-.87,2.12-1.16.86-.29,1.8-.43,2.82-.43,1.44,0,2.52.34,3.26,1.01.74.67,1.07,1.72.99,3.13-.02.32-.03.84-.04,1.58,0,.74-.01,1.49-.01,2.25,0,.63,0,1.24.01,1.8,0,.57.02,1,.04,1.3.04.34.12.56.25.67.13.11.3.16.5.14l.89-.06c.19,0,.28.09.28.28,0,.11-.02.27-.06.48-.04.21-.09.38-.17.53-.35.15-.84.28-1.45.41-.62.12-1.14.18-1.57.18ZM219.92,102.55l.03-3.75c-.93.13-1.79.32-2.56.56-.77.24-1.39.58-1.85,1.02-.46.44-.69,1.01-.69,1.72,0,.5.18.95.53,1.34.35.39.88.59,1.57.59.56,0,1.13-.12,1.71-.35.58-.23,1-.61,1.26-1.13ZM247.57,105.46l-13-.03c-.19,0-.28-.09-.28-.28,0-.07.02-.22.07-.45.05-.22.11-.4.18-.53.69-.06,1.17-.25,1.44-.59.27-.34.41-.89.41-1.65v-12.72c0-.63-.04-1.08-.11-1.34-.07-.26-.24-.42-.49-.49-.25-.07-.65-.1-1.19-.1,0-.24.02-.47.06-.69.04-.21.07-.37.08-.46.06-.19.16-.28.31-.28h12.16c.2,0,.34.04.42.13.07.08.12.23.14.43l.22,3.47c-.11.06-.28.1-.5.14-.22.04-.38.06-.48.06-.24,0-.38-.1-.42-.31l-.22-1.17c-.07-.45-.19-.74-.34-.87-.15-.13-.45-.2-.89-.2l-4.36-.06c-.54-.02-.93.01-1.16.1-.23.08-.38.25-.43.5-.06.25-.08.64-.08,1.16v4.98h3.72c.76,0,1.26-.09,1.5-.28.23-.19.36-.55.38-1.09.13-.07.3-.13.52-.15.21-.03.36-.04.43-.04.19,0,.28.09.28.28l-.11,4.67c0,.15-.09.25-.28.31-.09.02-.24.05-.45.08-.21.04-.41.06-.62.06,0-.65-.03-1.14-.1-1.45-.07-.32-.21-.53-.45-.63-.23-.1-.6-.15-1.1-.15h-3.72v6.1c0,.84.11,1.37.34,1.61.22.23.57.34,1.03.32l4.84-.11c.54-.02.95-.1,1.24-.25.29-.15.5-.43.63-.84l.45-1.29c.09-.2.23-.31.42-.31.09,0,.24.03.45.08.2.06.36.11.48.17l-.62,3.5c-.09.45-.35.67-.78.67ZM256.99,105.85c-1.17,0-2.26-.23-3.24-.7-.99-.47-1.78-1.18-2.36-2.15-.59-.97-.88-2.2-.88-3.69,0-1.4.28-2.65.85-3.75.57-1.1,1.39-1.97,2.46-2.6,1.07-.63,2.35-.95,3.84-.95,1.01,0,1.83.14,2.47.42.64.28,1.12.58,1.43.91.31.33.46.56.46.71,0,.19-.1.4-.29.63-.2.23-.44.44-.74.63-.3.19-.61.32-.92.39-.26-.82-.68-1.37-1.26-1.65-.58-.28-1.18-.42-1.82-.42-.8,0-1.48.24-2.03.71-.55.48-.96,1.1-1.23,1.86-.27.76-.41,1.57-.41,2.4s.15,1.72.46,2.54c.31.82.77,1.49,1.38,2.01.62.52,1.38.78,2.29.78.78,0,1.56-.16,2.32-.49.76-.33,1.38-.73,1.85-1.22.19.19.36.4.52.64.16.24.24.46.24.64,0,.28-.19.55-.56.81-.75.52-1.55.9-2.4,1.15-.86.24-1.67.36-2.43.36ZM273.54,105.71c-.22-.06-.45-.19-.69-.41-.23-.21-.42-.51-.55-.88-.47.41-1.03.75-1.69,1.02-.66.27-1.46.41-2.39.41-1.23,0-2.23-.31-3.01-.94-.77-.62-1.16-1.46-1.16-2.5s.31-1.94.94-2.57c.62-.63,1.54-1.13,2.74-1.5,1.2-.36,2.66-.67,4.38-.91v-.81c.02-1.21-.18-2.04-.6-2.49-.42-.45-1.08-.67-1.97-.67-.62,0-1.09.13-1.41.39-.33.26-.55.6-.67,1.02-.12.42-.2.87-.24,1.36-.39,0-.8-.04-1.23-.13-.43-.08-.78-.2-1.06-.35-.28-.15-.39-.34-.34-.56.15-.58.5-1.11,1.06-1.59.56-.48,1.27-.87,2.12-1.16.86-.29,1.8-.43,2.82-.43,1.44,0,2.52.34,3.26,1.01.74.67,1.07,1.72.99,3.13-.02.32-.03.84-.04,1.58,0,.74-.01,1.49-.01,2.25,0,.63,0,1.24.01,1.8,0,.57.02,1,.04,1.3.04.34.12.56.25.67.13.11.3.16.5.14l.89-.06c.19,0,.28.09.28.28,0,.11-.02.27-.06.48-.04.21-.09.38-.17.53-.35.15-.84.28-1.45.41-.62.12-1.14.18-1.57.18ZM272.06,102.55l.03-3.75c-.93.13-1.79.32-2.56.56-.77.24-1.39.58-1.85,1.02-.46.44-.69,1.01-.69,1.72,0,.5.18.95.53,1.34.35.39.88.59,1.57.59.56,0,1.13-.12,1.71-.35.58-.23,1-.61,1.26-1.13ZM283.67,105.85c-1.25,0-2.24-.31-2.98-.92-.74-.62-1.1-1.67-1.08-3.16l.06-7.66h-1.82c-.24,0-.36-.12-.36-.36,0-.2.05-.45.14-.73.09-.28.18-.48.25-.59h1.79v-2.24c0-.34.14-.57.42-.7.3-.15.7-.28,1.22-.39.51-.11.97-.17,1.38-.17-.06.3-.1.76-.14,1.38-.04.62-.07,1.33-.11,2.11h1.85c1.1,0,1.95-.05,2.54-.14-.09.62-.22,1.12-.39,1.51-.09.21-.31.31-.64.31h-3.41c-.04.93-.06,1.86-.07,2.8,0,.93-.01,1.77-.01,2.52v1.08c0,.33,0,.61.03.85.06.86.28,1.47.67,1.85.39.37.85.56,1.37.56.39,0,.8-.06,1.22-.18.42-.12.89-.3,1.41-.55.06.17.12.37.18.62.07.24.1.46.1.64,0,.21-.09.37-.28.5-.58.35-1.13.62-1.66.8-.53.18-1.09.27-1.66.27ZM291.24,99.14c.07,1.44.48,2.59,1.23,3.45.75.87,1.82,1.3,3.22,1.3.71,0,1.41-.14,2.1-.42.69-.28,1.27-.66,1.73-1.15.39.43.59.86.59,1.29-.02.28-.21.55-.59.81-.69.5-1.46.87-2.32,1.09-.86.22-1.67.34-2.43.34-1.14,0-2.19-.25-3.16-.74-.97-.49-1.75-1.23-2.33-2.19-.59-.97-.88-2.18-.88-3.63s.27-2.7.8-3.79c.53-1.09,1.29-1.94,2.26-2.56.98-.62,2.14-.92,3.48-.92,1.1,0,2.05.22,2.84.67.79.45,1.41,1.07,1.85,1.86.44.79.66,1.69.66,2.7,0,.52-.11.91-.32,1.16-.21.25-.58.4-1.1.43l-7.61.31ZM294.71,93.63c-.91,0-1.67.35-2.26,1.05-.6.7-.97,1.65-1.12,2.87l6.24-.36c.06-1.14-.17-2.01-.69-2.63-.51-.62-1.24-.92-2.17-.92ZM302.51,105.43c-.19,0-.28-.09-.28-.28,0-.13.01-.3.04-.5.03-.2.08-.36.15-.48.6-.04,1.02-.19,1.27-.45.25-.26.4-.62.43-1.09.04-.32.06-.82.07-1.52,0-.7.01-1.41.01-2.14s0-1.44-.01-2.12c0-.69-.02-1.24-.04-1.65-.04-.67-.32-1.03-.84-1.09l-.95-.08c-.19-.02-.28-.14-.28-.36,0-.26.09-.56.28-.89.32-.07.71-.14,1.17-.21.47-.07.92-.13,1.37-.18.45-.06.78-.08,1.01-.08.37,0,.63.09.77.28.14.19.21.51.21.98v.81c.41-.73.91-1.3,1.51-1.72.6-.42,1.26-.63,1.99-.63.43,0,.77.05,1.03.14.26.09.48.2.67.31.13.07.2.19.2.34,0,.35-.11.78-.32,1.27-.21.49-.45.83-.71,1.02-.86-.48-1.6-.73-2.24-.73-.56,0-.99.18-1.3.55-.31.36-.53.86-.66,1.48-.13.62-.21,1.33-.22,2.11v1.48c0,.56,0,1.12.01,1.69,0,.57.02,1.09.04,1.55.02.24.07.42.17.52.09.1.2.16.31.18.3.02.62.04.96.06.34.02.64.03.88.03,0,.19,0,.4-.03.64-.02.24-.05.41-.08.5-.06.19-.19.28-.39.28h-6.21ZM313.55,105.43c-.19,0-.28-.13-.28-.39,0-.32.06-.61.17-.87.67-.04,1.14-.19,1.41-.45.27-.26.42-.62.46-1.09.04-.32.06-.8.07-1.45,0-.65.01-1.34.01-2.07s0-1.44-.01-2.14c0-.7-.02-1.25-.04-1.66-.04-.67-.32-1.03-.84-1.09l-.95-.08c-.19,0-.28-.12-.28-.36s.09-.53.28-.87c.28-.07.68-.15,1.19-.22.51-.07,1.02-.14,1.51-.2.49-.06.85-.08,1.08-.08.62,0,.89.37.84,1.12-.04.54-.07,1.18-.08,1.92-.02.74-.03,1.51-.04,2.32,0,.81-.01,1.6-.01,2.36,0,.56,0,1.1.01,1.62,0,.52.02,1.02.04,1.48.02.24.07.42.17.52.09.1.2.16.31.18.17.02.39.04.66.06.27.02.53.03.77.03,0,.5-.04.89-.11,1.15-.06.19-.19.28-.39.28h-5.93ZM316.52,89.91c-.58,0-1.05-.18-1.43-.55-.37-.36-.56-.81-.56-1.33,0-.56.19-1.02.56-1.37.37-.35.85-.53,1.43-.53s1.04.18,1.4.53c.35.35.53.81.53,1.37,0,.52-.18.96-.53,1.33-.35.36-.82.55-1.4.55ZM321.52,105.43c-.19,0-.28-.09-.28-.28,0-.13.01-.3.04-.5.03-.2.08-.36.15-.48.6-.04,1.02-.19,1.27-.45.25-.26.4-.62.43-1.09.04-.32.06-.8.07-1.45,0-.65.01-1.34.01-2.07s0-1.46-.01-2.19c0-.74-.02-1.31-.04-1.72-.04-.67-.32-1.03-.84-1.09l-.95-.08c-.19,0-.28-.12-.28-.36,0-.26.09-.56.28-.89.32-.07.71-.14,1.17-.21.47-.07.92-.13,1.37-.18.45-.06.78-.08,1.01-.08.37,0,.63.09.77.28.14.19.21.51.21.98v.53c.62-.63,1.32-1.14,2.13-1.51.8-.37,1.6-.56,2.4-.56,1.16,0,2.1.33,2.84.98.74.65,1.1,1.7,1.1,3.13v3.38c0,.89,0,1.65.01,2.28,0,.62.03,1.1.07,1.41.06.41.22.65.5.73.34.07.79.11,1.37.11,0,.48-.04.86-.11,1.12-.06.19-.16.28-.31.28h-5.87c-.19,0-.28-.09-.28-.28,0-.07,0-.21.03-.41.02-.2.07-.39.14-.57.6-.04,1.02-.19,1.26-.45.24-.26.39-.62.45-1.09.09-.78.14-1.83.14-3.13,0-.37,0-.74-.01-1.09,0-.35-.02-.69-.04-1.01-.06-1.1-.27-1.91-.63-2.43-.36-.52-.97-.78-1.83-.78-.6,0-1.19.12-1.79.36-.6.24-1.13.6-1.59,1.06,0,.71,0,1.45-.01,2.24,0,.78-.01,1.54-.01,2.26,0,.56,0,1.1.01,1.62,0,.52.02,1.02.04,1.48.02.24.07.42.17.52.09.1.2.16.31.18.34.06.76.08,1.29.08,0,.19,0,.4-.03.64-.02.24-.05.41-.08.5-.06.19-.19.28-.39.28h-5.65ZM347.08,105.71c-.22-.06-.45-.19-.69-.41-.23-.21-.42-.51-.55-.88-.47.41-1.03.75-1.69,1.02-.66.27-1.46.41-2.39.41-1.23,0-2.23-.31-3.01-.94-.77-.62-1.16-1.46-1.16-2.5s.31-1.94.94-2.57c.62-.63,1.54-1.13,2.74-1.5,1.2-.36,2.66-.67,4.38-.91v-.81c.02-1.21-.18-2.04-.6-2.49-.42-.45-1.08-.67-1.97-.67-.62,0-1.09.13-1.41.39-.33.26-.55.6-.67,1.02-.12.42-.2.87-.24,1.36-.39,0-.8-.04-1.23-.13-.43-.08-.78-.2-1.06-.35-.28-.15-.39-.34-.34-.56.15-.58.5-1.11,1.06-1.59.56-.48,1.27-.87,2.12-1.16.86-.29,1.8-.43,2.82-.43,1.44,0,2.52.34,3.26,1.01.74.67,1.07,1.72.99,3.13-.02.32-.03.84-.04,1.58,0,.74-.01,1.49-.01,2.25,0,.63,0,1.24.01,1.8,0,.57.02,1,.04,1.3.04.34.12.56.25.67.13.11.3.16.5.14l.89-.06c.19,0,.28.09.28.28,0,.11-.02.27-.06.48-.04.21-.09.38-.17.53-.35.15-.84.28-1.45.41-.62.12-1.14.18-1.57.18ZM345.6,102.55l.03-3.75c-.93.13-1.79.32-2.56.56-.77.24-1.39.58-1.85,1.02-.46.44-.69,1.01-.69,1.72,0,.5.18.95.53,1.34.35.39.88.59,1.57.59.56,0,1.13-.12,1.71-.35.58-.23,1-.61,1.26-1.13Z"/>
  </g>
  <g>
    <path class="st2" d="M84.54,75.1c.5-.57,1.02-1.14,1.57-1.72-.13.2-.29.42-.5.65-2.23,3.2-2.36,8.1-2.36,13.26,0,1.55.37,4.64,1.12,9.26.78,4.62,1.17,8.55,1.17,11.78,0,7.2-1.83,13-5.5,17.4-3.67,4.39-8.28,6.59-13.83,6.59-4.01,0-7.43-.98-9.69-3.55-1.94-2.2-1.94-7.55,2.6-10.84-.71,1.12-1.58,3.2-1.69,4.63-.15,1.99-.16,3.98,1.73,5.6,1.71,1.46,5.39,1.97,7.87,1.97,3.7,0,6.7-1.55,9-4.67,2.3-3.11,3.45-7.43,3.45-12.94,0-.72-.02-1.5-.05-2.33-.82-.02-4.55-.64-5.17-1.1-1.97-1.46-.61-3.21-.4-4.1.21-.9-.35-1.63-.88-1.94-.52-.3-.57-1.02-.44-1.42.13-.39.52-.75,1.45-.84-1.21-.32-.94-.35-1.3-.63-.36-.28-.37-1.34.13-1.65.34-.21.64-.25.75-.37.26-.23.14-.92-.43-1.62-.44-.54-2.05-1.02-2.05-1.89.1-.84,5.11-3.14,6.43-5.67,1.32-2.53.55-2.24.76-4.5.39-4.23,4-7.23,6.26-9.35ZM120.12,115c.58.55,1.24.99,1.97,1.3.61.26,1.24.44,1.87.53,0-.02,0-.03.01-.05.07-.36.1-.72.08-1.09-.03-.48-.12-.95-.3-1.39-.15-.37-.32-.74-.52-1.09-.44-.81-.89-1.62-1.36-2.42-.62-1.08-1.24-2.16-1.66-3.33-.14-.38-.26-.76-.38-1.14-.04-.11-.07-.23-.1-.34h-.02s-.02.03-.02.04c-.11.34-.2.68-.32,1.02-.15.43-.32.86-.5,1.28-.33.77-.74,1.5-1.17,2.21-.58.98-1.15,1.97-1.67,2.99-.31.61-.55,1.23-.63,1.91-.08.7,0,1.38.26,2.04.32.81.83,1.47,1.54,1.97.88.62,1.87.88,2.94.78.49-.05.96-.17,1.4-.38.66-.31,1.2-.75,1.63-1.32-.47-.06-.94-.19-1.4-.39-.52-.23-.99-.54-1.41-.93-.92-.86-1.44-1.92-1.58-3.17-.03-.25-.04-.5-.03-.74.35.62.8,1.2,1.36,1.72Z"/>
    <path class="st0" d="M136.72,111.32c0,5.71-2.22,10.96-6.66,15.74-4.44,4.78-10.2,6.84-16.98,6.84-4.56,0-8.4-.8-11.63-2.68v.06c-1.09-.63-2.12-1.39-3.07-2.29-3.8-3.54-5.69-7.87-5.69-13.01,0-4.01,1.36-7.69,4.07-11.07,1.3-1.62,2.87-3.06,4.7-4.32v-.06c1.99-1.37,4.28-2.54,6.88-3.49-2.84-.61-5.14-1.53-6.88-2.78v.06c-.72-.52-1.36-1.08-1.89-1.71-.26.4-.54.8-.83,1.19-2.72,3.65-6.52,6.17-11.41,7.56,6.68-2.61,9.63-9.17,9.63-16.7,0-4.78-1.53-8.63-4.59-11.55-3.06-2.93-7.15-4.38-12.27-4.38-6.82,0-12.76,2.27-17.82,6.81-5.06,4.54-7.59,9.98-7.59,16.32,0,3.36.85,6.07,2.57,8.12,1.71,2.05,3.69,3.08,5.95,3.08,2.87,0,4.89-1.06,6.05-3.18-2.42,4.64-4.43,7.54-8.82,7.54-2.97,0-5.4-1.16-7.29-3.49-1.89-2.32-2.83-5.39-2.83-9.2,0-7.39,3.18-14.02,9.55-19.88,6.36-5.86,14.14-8.79,23.31-8.79,5.98,0,10.74,1.49,14.29,4.46,1.77,1.48,3.09,3.18,3.98,5.1v.43c.55-.45,1.11-.87,1.7-1.29.26-.22.53-.43.8-.65,4.39-3.41,9.31-5.15,14.78-5.21h.02c2.24-.1,4.47.11,6.7.64,3.71.88,6.48,2.51,8.3,4.88.09.12.18.25.27.37.15.14.32.27.47.41-.09-.03-.16-.05-.25-.08,1.42,2.18,1.83,4.58,1.21,7.18-1.01,4.27-4.3,5.55-9.37,6.84,2.33-.64,3.82-2.36,4.49-5.15.52-2.2-.02-4.37-1.62-6.5-1.6-2.14-4.04-3.6-7.31-4.37-4.46-1.05-8.76-.71-12.92,1.02-3.54,2.06-6.12,4.81-6.12,9.19,0,3.21,1.28,6.12,3.36,8.26.01.01.03.03.04.04.63.66,1.31,1.21,2.05,1.66,1.84,1.18,4.03,1.86,6.37,1.86.87,0,1.71-.09,2.52-.27.67.18,1.37.49,2.12,1-6.18.78-11.01,2.95-14.5,6.52-1.32,1.35-2.35,2.82-3.12,4.42v.06c-1.26,2.62-1.83,5.56-1.83,8.77,0,2.89.67,5.28,1.83,7.37v-.06c.78,1.41,1.78,2.68,2.94,3.86,2.87,2.94,5.88,3.98,10.43,3.86,4.63-.12,8.06-1.15,11.54-4.54,3.47-3.39,6.57-9.74,6.57-14,0-.45-.01-.87-.05-1.28-.56-5.94-5.66-8.05-11.13-8.05-.7,0-1.38.07-2.04.19,2.1-1.25,4.43-1.88,6.99-1.88,3.03,0,5.46.98,7.28,2.93,1.01,1.08,1.73,2.31,2.18,3.68.36,1.11.55,2.31.55,3.61Z"/>
  </g>
</svg>